<svg width="40" height="40" viewBox="0 0 40 40" fill="none" xmlns="http://www.w3.org/2000/svg">
<circle cx="20" cy="20" r="20" transform="rotate(-90 20 20)" fill="url(#paint0_linear_125_648)"/>
<path d="M22.5303 20.5303C22.8232 20.2374 22.8232 19.7626 22.5303 19.4697L17.7574 14.6967C17.4645 14.4038 16.9896 14.4038 16.6967 14.6967C16.4038 14.9896 16.4038 15.4645 16.6967 15.7574L20.9393 20L16.6967 24.2426C16.4038 24.5355 16.4038 25.0104 16.6967 25.3033C16.9896 25.5962 17.4645 25.5962 17.7574 25.3033L22.5303 20.5303ZM21 20.75L22 20.75L22 19.25L21 19.25L21 20.75Z" fill="white"/>
<defs>
<linearGradient id="paint0_linear_125_648" x1="20" y1="0" x2="20" y2="40" gradientUnits="userSpaceOnUse">
<stop stop-color="#2494F3"/>
<stop offset="1" stop-color="#7170FF"/>
</linearGradient>
</defs>
</svg>
