<svg width="85" height="85" viewBox="0 0 85 85" fill="none" xmlns="http://www.w3.org/2000/svg">
<g filter="url(#filter0_d_125_748)">
<rect x="10" y="10" width="65" height="65" rx="10" fill="url(#paint0_linear_125_748)"/>
</g>
<path d="M54 27C56.7001 27 59 29.3285 59 32V48C59 50.6715 56.7001 53 54 53H31C28.2999 53 26 50.6715 26 48V32C26 29.3285 28.2999 27 31 27H54Z" stroke="white" stroke-width="2"/>
<path d="M48 58H43H37" stroke="white" stroke-width="2" stroke-linecap="round" stroke-linejoin="round"/>
<path d="M48.0962 39.9659C47.9826 39.8366 47.92 39.6704 47.92 39.4984C47.92 39.3263 47.9826 39.1601 48.0962 39.0309L49.0029 38.0109C49.1028 37.8994 49.1648 37.7592 49.1801 37.6103C49.1954 37.4614 49.1631 37.3115 49.0879 37.1821L47.6712 34.7313C47.5968 34.602 47.4834 34.4996 47.3473 34.4385C47.2112 34.3775 47.0593 34.3609 46.9133 34.3913L45.5816 34.6604C45.4122 34.6955 45.2358 34.6672 45.0857 34.5811C44.9356 34.495 44.8223 34.3569 44.767 34.1929L44.335 32.8967C44.2874 32.756 44.1969 32.6338 44.0762 32.5474C43.9554 32.4609 43.8105 32.4146 43.662 32.415H40.8287C40.6742 32.407 40.5214 32.4497 40.3935 32.5367C40.2656 32.6236 40.1697 32.7501 40.1204 32.8967L39.7237 34.1929C39.6685 34.3569 39.5551 34.495 39.405 34.5811C39.255 34.6672 39.0786 34.6955 38.9091 34.6604L37.542 34.3913C37.4036 34.3717 37.2625 34.3936 37.1364 34.4541C37.0104 34.5146 36.905 34.611 36.8337 34.7313L35.417 37.1821C35.3399 37.3101 35.3053 37.4591 35.318 37.608C35.3307 37.7568 35.3902 37.8978 35.4879 38.0109L36.3875 39.0309C36.501 39.1601 36.5636 39.3263 36.5636 39.4984C36.5636 39.6704 36.501 39.8366 36.3875 39.9659L35.4879 40.9859C35.3902 41.0989 35.3307 41.2399 35.318 41.3887C35.3053 41.5376 35.3399 41.6866 35.417 41.8146L36.8337 44.2654C36.9082 44.3947 37.0215 44.4972 37.1576 44.5582C37.2937 44.6193 37.4456 44.6358 37.5916 44.6054L38.9233 44.3363C39.0927 44.3013 39.2691 44.3295 39.4192 44.4156C39.5693 44.5017 39.6826 44.6398 39.7379 44.8038L40.17 46.1C40.2192 46.2466 40.3152 46.3731 40.4431 46.4601C40.571 46.547 40.7238 46.5898 40.8783 46.5817H43.7116C43.8601 46.5821 44.005 46.5358 44.1257 46.4493C44.2465 46.3629 44.337 46.2407 44.3845 46.1L44.8166 44.8038C44.8719 44.6398 44.9852 44.5017 45.1353 44.4156C45.2854 44.3295 45.4618 44.3013 45.6312 44.3363L46.9629 44.6054C47.1089 44.6358 47.2608 44.6193 47.3969 44.5582C47.533 44.4972 47.6463 44.3947 47.7208 44.2654L49.1375 41.8146C49.2127 41.6852 49.2449 41.5353 49.2297 41.3864C49.2144 41.2375 49.1524 41.0973 49.0525 40.9859L48.0962 39.9659ZM47.0408 40.915L47.6075 41.5525L46.7008 43.125L45.865 42.955C45.3548 42.8507 44.8241 42.9374 44.3736 43.1986C43.9231 43.4597 43.5842 43.8772 43.4212 44.3717L43.152 45.165H41.3387L41.0837 44.3575C40.9207 43.863 40.5818 43.4455 40.1313 43.1844C39.6808 42.9232 39.1501 42.8366 38.64 42.9409L37.8041 43.1109L36.8833 41.5454L37.45 40.9079C37.7984 40.5183 37.9911 40.014 37.9911 39.4913C37.9911 38.9686 37.7984 38.4642 37.45 38.0746L36.8833 37.4371L37.79 35.8788L38.6258 36.0488C39.1359 36.1531 39.6666 36.0664 40.1171 35.8052C40.5676 35.5441 40.9065 35.1266 41.0695 34.6321L41.3387 33.8317H43.152L43.4212 34.6392C43.5842 35.1337 43.9231 35.5512 44.3736 35.8123C44.8241 36.0735 45.3548 36.1601 45.865 36.0559L46.7008 35.8859L47.6075 37.4584L47.0408 38.0959C46.6962 38.4846 46.506 38.986 46.506 39.5054C46.506 40.0249 46.6962 40.5263 47.0408 40.915ZM42.2454 36.665C41.685 36.665 41.1372 36.8312 40.6713 37.1425C40.2053 37.4539 39.8422 37.8964 39.6277 38.4141C39.4133 38.9318 39.3572 39.5015 39.4665 40.0511C39.5758 40.6007 39.8457 41.1056 40.2419 41.5018C40.6382 41.8981 41.143 42.1679 41.6926 42.2773C42.2422 42.3866 42.8119 42.3305 43.3296 42.116C43.8474 41.9016 44.2899 41.5384 44.6012 41.0725C44.9125 40.6065 45.0787 40.0587 45.0787 39.4984C45.0787 38.7469 44.7802 38.0262 44.2488 37.4949C43.7175 36.9635 42.9968 36.665 42.2454 36.665ZM42.2454 40.915C41.9652 40.915 41.6913 40.8319 41.4583 40.6763C41.2253 40.5206 41.0438 40.2994 40.9365 40.0405C40.8293 39.7816 40.8013 39.4968 40.8559 39.222C40.9106 38.9472 41.0455 38.6947 41.2436 38.4966C41.4418 38.2985 41.6942 38.1636 41.969 38.1089C42.2438 38.0543 42.5286 38.0823 42.7875 38.1895C43.0464 38.2968 43.2676 38.4783 43.4233 38.7113C43.579 38.9443 43.662 39.2182 43.662 39.4984C43.662 39.8741 43.5128 40.2344 43.2471 40.5001C42.9814 40.7658 42.6211 40.915 42.2454 40.915Z" fill="white"/>
<defs>
<filter id="filter0_d_125_748" x="0" y="0" width="85" height="85" filterUnits="userSpaceOnUse" color-interpolation-filters="sRGB">
<feFlood flood-opacity="0" result="BackgroundImageFix"/>
<feColorMatrix in="SourceAlpha" type="matrix" values="0 0 0 0 0 0 0 0 0 0 0 0 0 0 0 0 0 0 127 0" result="hardAlpha"/>
<feOffset/>
<feGaussianBlur stdDeviation="5"/>
<feComposite in2="hardAlpha" operator="out"/>
<feColorMatrix type="matrix" values="0 0 0 0 0 0 0 0 0 0 0 0 0 0 0 0 0 0 0.15 0"/>
<feBlend mode="normal" in2="BackgroundImageFix" result="effect1_dropShadow_125_748"/>
<feBlend mode="normal" in="SourceGraphic" in2="effect1_dropShadow_125_748" result="shape"/>
</filter>
<linearGradient id="paint0_linear_125_748" x1="10" y1="42.6016" x2="75" y2="45.1016" gradientUnits="userSpaceOnUse">
<stop stop-color="#2095F2"/>
<stop offset="1" stop-color="#7170FF"/>
</linearGradient>
</defs>
</svg>
