<svg width="25" height="30" viewBox="0 0 25 30" fill="none" xmlns="http://www.w3.org/2000/svg">
<rect x="0.000488281" y="5" width="21" height="24" fill="url(#paint0_linear_125_1221)"/>
<path fill-rule="evenodd" clip-rule="evenodd" d="M3.84336 0.15538L3.69107 0.310696V2.40222V4.49367H1.96371C0.286415 4.49367 0.232941 4.49753 0.118176 4.6269C0.00279184 4.75696 0 5.05677 0 17.2591V29.758L0.146464 29.879C0.28933 29.997 0.544848 30 10.6486 30H21.0044L21.1566 29.8446L21.3089 29.6893V27.5978V25.5063H23.0363C24.7136 25.5063 24.7671 25.5025 24.8818 25.3731C24.9972 25.243 25 24.9432 25 12.7409V0.241962L24.8535 0.121013C24.7107 0.00297473 24.4551 0 14.3514 0H3.9956L3.84336 0.15538ZM24.1625 12.7532V24.6203H22.7357H21.3089V14.7237V4.82722L21.1803 4.66044L21.0518 4.49367H12.8056H4.55955V2.68987V0.886076H14.361H24.1625V12.7532ZM20.4404 17.2468V28.5H15.5005H10.5005H0.837469V17.2468V5.37975H10.639H20.4404V17.2468ZM12.3334 7.72095C12.0596 7.83557 11.983 8.20671 12.1898 8.41772C12.3102 8.54057 12.3966 8.5443 15.1365 8.5443C17.8764 8.5443 17.9627 8.54057 18.0831 8.41772C18.2395 8.25816 18.2417 8.03215 18.0886 7.8393L17.9701 7.68987L15.2195 7.67709C13.7068 7.67 12.408 7.68981 12.3334 7.72095ZM3.3384 12.2785C3.06464 12.3919 2.9879 12.7636 3.19479 12.9747C3.31743 13.0998 3.40155 13.1013 10.639 13.1013C17.8764 13.1013 17.9605 13.0998 18.0831 12.9747C18.2395 12.8151 18.2417 12.5891 18.0886 12.3963L17.97 12.2468L10.722 12.2346C6.6191 12.2277 3.41514 12.2468 3.3384 12.2785ZM3.3384 14.557C3.06464 14.6704 2.9879 15.0421 3.19479 15.2532C3.31743 15.3783 3.40155 15.3797 10.639 15.3797C17.8764 15.3797 17.9605 15.3783 18.0831 15.2532C18.2395 15.0936 18.2417 14.8676 18.0886 14.6747L17.97 14.5253L10.722 14.5131C6.6191 14.5062 3.41514 14.5253 3.3384 14.557ZM3.3384 16.8355C3.06464 16.9489 2.9879 17.3206 3.19479 17.5316C3.31743 17.6568 3.40155 17.6582 10.639 17.6582C17.8764 17.6582 17.9605 17.6568 18.0831 17.5316C18.2395 17.3721 18.2417 17.1461 18.0886 16.9532L17.97 16.8038L10.722 16.7916C6.6191 16.7847 3.41514 16.8037 3.3384 16.8355ZM3.3384 19.114C3.06464 19.2273 2.9879 19.5991 3.19479 19.8101C3.31743 19.9353 3.40155 19.9367 10.639 19.9367C17.8764 19.9367 17.9605 19.9353 18.0831 19.8101C18.2395 19.6506 18.2417 19.4246 18.0886 19.2317L17.97 19.0823L10.722 19.0701C6.6191 19.0632 3.41514 19.0822 3.3384 19.114ZM3.3384 21.3925C3.06464 21.5058 2.9879 21.8775 3.19479 22.0886C3.31743 22.2137 3.40155 22.2152 10.639 22.2152C17.8764 22.2152 17.9605 22.2137 18.0831 22.0886C18.2395 21.9291 18.2417 21.703 18.0886 21.5102L17.97 21.3608L10.722 21.3485C6.6191 21.3416 3.41514 21.3607 3.3384 21.3925ZM3.3384 23.6709C3.06464 23.7843 2.9879 24.156 3.19479 24.3671C3.31743 24.4922 3.40155 24.4937 10.639 24.4937C17.8764 24.4937 17.9605 24.4922 18.0831 24.3671C18.2395 24.2075 18.2417 23.9815 18.0886 23.7887L17.97 23.6392L10.722 23.627C6.6191 23.6201 3.41514 23.6392 3.3384 23.6709ZM6.00589 25.9492C5.73207 26.063 5.65546 26.4346 5.86228 26.6456C5.98412 26.7699 6.06904 26.7722 10.639 26.7722C15.2089 26.7722 15.2938 26.7699 15.4156 26.6456C15.572 26.486 15.5742 26.26 15.4212 26.0672L15.3025 25.9177L10.722 25.9053C8.15577 25.8983 6.08182 25.9176 6.00589 25.9492Z" fill="#2095F2"/>
<path d="M3.3384 10.8228C3.13151 10.6117 3.20825 10.24 3.48201 10.1266C3.55875 10.0949 6.76272 10.0758 10.8656 10.0827L18.1136 10.0949L18.2322 10.2444C18.3853 10.4372 18.3831 10.6632 18.2267 10.8228C18.1041 10.9479 18.02 10.9494 10.7826 10.9494C3.54516 10.9494 3.46104 10.9479 3.3384 10.8228Z" fill="white"/>
<path d="M3.3384 13.1013C3.13151 12.8902 3.20825 12.5185 3.48201 12.4051C3.55875 12.3734 6.76272 12.3543 10.8656 12.3612L18.1136 12.3734L18.2322 12.5228C18.3853 12.7157 18.3831 12.9417 18.2267 13.1013C18.1041 13.2264 18.02 13.2278 10.7826 13.2278C3.54516 13.2278 3.46104 13.2264 3.3384 13.1013Z" fill="white"/>
<path d="M3.3384 15.3797C3.13151 15.1687 3.20825 14.797 3.48201 14.6836C3.55875 14.6518 6.76272 14.6328 10.8656 14.6397L18.1136 14.6519L18.2322 14.8013C18.3853 14.9942 18.3831 15.2202 18.2267 15.3797C18.1041 15.5049 18.02 15.5063 10.7826 15.5063C3.54516 15.5063 3.46104 15.5049 3.3384 15.3797Z" fill="white"/>
<path d="M3.3384 17.6582C3.13151 17.4472 3.20825 17.0754 3.48201 16.9621C3.55875 16.9303 6.76272 16.9113 10.8656 16.9182L18.1136 16.9304L18.2322 17.0798C18.3853 17.2727 18.3831 17.4987 18.2267 17.6582C18.1041 17.7834 18.02 17.7848 10.7826 17.7848C3.54516 17.7848 3.46104 17.7834 3.3384 17.6582Z" fill="white"/>
<path d="M3.3384 19.9367C3.13151 19.7256 3.20825 19.3539 3.48201 19.2406C3.55875 19.2088 6.76272 19.1897 10.8656 19.1966L18.1136 19.2089L18.2322 19.3583C18.3853 19.5511 18.3831 19.7772 18.2267 19.9367C18.1041 20.0618 18.02 20.0633 10.7826 20.0633C3.54516 20.0633 3.46104 20.0618 3.3384 19.9367Z" fill="white"/>
<path d="M3.3384 22.2152C3.13151 22.0041 3.20825 21.6324 3.48201 21.519C3.55875 21.4873 6.76272 21.4682 10.8656 21.4751L18.1136 21.4873L18.2322 21.6368C18.3853 21.8296 18.3831 22.0556 18.2267 22.2152C18.1041 22.3403 18.02 22.3418 10.7826 22.3418C3.54516 22.3418 3.46104 22.3403 3.3384 22.2152Z" fill="white"/>
<path d="M6.00589 24.4937C5.79907 24.2827 5.87568 23.9111 6.1495 23.7973C6.22544 23.7657 8.29938 23.7464 10.8656 23.7534L15.4462 23.7658L15.5648 23.9153C15.7178 24.1081 15.7156 24.3341 15.5592 24.4937C15.4374 24.618 15.3525 24.6203 10.7826 24.6203C6.21265 24.6203 6.12773 24.618 6.00589 24.4937Z" fill="white"/>
<defs>
<linearGradient id="paint0_linear_125_1221" x1="-4.55096e-07" y1="16.5" x2="20" y2="17" gradientUnits="userSpaceOnUse">
<stop stop-color="#2095F2"/>
<stop offset="1" stop-color="#9190FF"/>
</linearGradient>
</defs>
</svg>
