<svg width="40" height="40" viewBox="0 0 40 40" fill="none" xmlns="http://www.w3.org/2000/svg">
<circle cx="20" cy="20" r="20" transform="rotate(-90 20 20)" fill="url(#paint0_linear_218_680)"/>
<path fill-rule="evenodd" clip-rule="evenodd" d="M19.7742 12.0362C19.6417 12.0954 19.5229 12.2173 19.4726 12.3457C19.4461 12.4131 19.4344 14.2011 19.4344 18.1829V23.9229L17.8519 22.3973C16.1383 20.7454 16.1948 20.7895 15.8687 20.8486C15.6927 20.8805 15.4787 21.0872 15.4457 21.2572C15.3835 21.5775 15.2879 21.469 17.6038 23.7058C19.9204 25.9434 19.8058 25.8491 20.1408 25.7909C20.2593 25.7703 20.5233 25.5276 22.4095 23.7058C24.7255 21.469 24.6299 21.5775 24.5676 21.2572C24.5346 21.0872 24.3207 20.8805 24.1446 20.8486C23.8185 20.7895 23.875 20.7455 22.1618 22.397L20.5795 23.9223L20.5703 18.131C20.561 12.3428 20.561 12.3398 20.4873 12.2444C20.4467 12.192 20.3715 12.1187 20.3201 12.0816C20.2015 11.9962 19.9167 11.9725 19.7742 12.0362ZM12.3334 24.7478C12.1887 24.8112 12.0391 24.9875 12.0129 25.1253C12.0013 25.1865 11.9967 25.7834 12.0026 26.4517C12.0129 27.6166 12.0164 27.6708 12.0871 27.7622C12.1276 27.8146 12.2052 27.8896 12.2596 27.9288L12.3583 28H20.0067H27.655L27.7538 27.9288C27.8081 27.8896 27.8857 27.8146 27.9263 27.7622C27.9977 27.6698 28 27.626 28 26.3592C28 25.0925 27.9977 25.0487 27.9263 24.9562C27.7861 24.775 27.6718 24.7184 27.4457 24.7184C27.2195 24.7184 27.1052 24.7749 26.9651 24.9562C26.8955 25.046 26.8907 25.1047 26.8807 25.9817L26.8701 26.9119H20.0067H13.1432L13.1326 25.9817C13.1226 25.1047 13.1178 25.046 13.0483 24.9562C13.0077 24.9037 12.9325 24.8305 12.8811 24.7934C12.7627 24.7081 12.4782 24.6844 12.3334 24.7478Z" fill="white"/>
<defs>
<linearGradient id="paint0_linear_218_680" x1="20" y1="0" x2="20" y2="40" gradientUnits="userSpaceOnUse">
<stop stop-color="#2494F3"/>
<stop offset="1" stop-color="#7170FF"/>
</linearGradient>
</defs>
</svg>
