<svg width="64" height="55" viewBox="0 0 64 55" fill="none" xmlns="http://www.w3.org/2000/svg">
<path fill-rule="evenodd" clip-rule="evenodd" d="M53.7685 0.392078C53.1797 0.538468 52.8844 0.772186 52.6048 1.31297C52.2759 1.94896 52.2847 53.4693 52.6138 54.1057C53.0736 54.9949 53.1025 55 57.7112 55C61.3734 55 61.9722 54.968 62.2975 54.7548C63.1549 54.1931 63.103 55.9381 63.1024 27.6709C63.1019 2.18357 63.0961 1.65648 62.8129 1.19187C62.3007 0.35191 62.1806 0.329446 58.0448 0.299394C55.9583 0.284369 54.0339 0.326024 53.7685 0.392078ZM60.7226 27.6263V52.6197H57.7472H54.7718V27.6263V2.63286H57.7472H60.7226V27.6263ZM40.6767 14.674C40.0879 14.8204 39.7926 15.0541 39.5131 15.5949C39.1849 16.2296 39.1935 53.4705 39.522 54.1057C39.9818 54.9949 40.0107 55 44.6194 55C48.2816 55 48.8804 54.968 49.2057 54.7548C50.0557 54.1978 50.0112 55.2986 50.0106 34.8119C50.0101 16.3954 50.0032 15.9365 49.7211 15.4738C49.2089 14.6339 49.0888 14.6114 44.953 14.5813C42.8665 14.5663 40.9422 14.608 40.6767 14.674ZM47.6309 34.7672V52.6197H44.6555H41.68V34.7672V16.9148H44.6555H47.6309V34.7672ZM27.585 26.5756C26.9961 26.722 26.7008 26.9558 26.4213 27.4965C26.0943 28.129 26.1028 53.4724 26.4302 54.1057C26.89 54.9949 26.9189 55 31.5277 55C35.1898 55 35.7886 54.968 36.114 54.7548C36.9518 54.2059 36.9194 54.7679 36.9188 40.7627C36.9184 28.2386 36.9096 27.8351 36.6293 27.3754C36.1171 26.5355 35.997 26.513 31.8612 26.483C29.7747 26.4679 27.8504 26.5096 27.585 26.5756ZM14.4932 33.7166C13.9043 33.863 13.609 34.0967 13.3295 34.6375C13.0038 35.2671 13.0123 53.475 13.3384 54.1057C13.7983 54.9949 13.8271 55 18.4359 55C22.098 55 22.6968 54.968 23.0222 54.7548C23.8459 54.2149 23.8276 54.4522 23.827 44.3332C23.8266 35.3445 23.8156 34.9724 23.5375 34.5164C23.0253 33.6765 22.9052 33.654 18.7694 33.6239C16.6829 33.6089 14.7586 33.6506 14.4932 33.7166ZM21.4473 44.2885V38.9675V35.9574V44.2885ZM1.40138 40.8576C0.812551 41.004 0.517242 41.2377 0.237702 41.7785C-0.084683 42.4018 -0.0766492 53.4805 0.246629 54.1057C0.706478 54.9949 0.73534 55 5.34409 55C9.00622 55 9.60502 54.968 9.93038 54.7548C10.7251 54.234 10.7358 54.1425 10.7352 47.9037C10.7348 42.4505 10.7187 42.1052 10.4457 41.6574C9.93351 40.8174 9.81345 40.795 5.67764 40.7649C3.59113 40.7499 1.66679 40.7915 1.40138 40.8576Z" fill="white"/>
</svg>
