<svg width="11" height="17" viewBox="0 0 11 17" fill="none" xmlns="http://www.w3.org/2000/svg">
<path d="M5.5 0.236206C2.46366 0.236206 0 2.55485 0 5.4119C0 10.0125 5.5 16.3384 5.5 16.3384C5.5 16.3384 11 10.0125 11 5.4119C11 2.55485 8.53634 0.236206 5.5 0.236206ZM5.5 8.28729C5.06488 8.28729 4.63953 8.15238 4.27775 7.89962C3.91596 7.64686 3.63398 7.2876 3.46746 6.86727C3.30095 6.44694 3.25738 5.98443 3.34227 5.53821C3.42716 5.092 3.63669 4.68212 3.94437 4.36042C4.25204 4.03871 4.64404 3.81963 5.0708 3.73087C5.49756 3.64211 5.93991 3.68767 6.3419 3.86177C6.7439 4.03588 7.08749 4.33071 7.32923 4.709C7.57097 5.08728 7.7 5.53202 7.7 5.98698C7.69936 6.59686 7.46737 7.18156 7.05493 7.61281C6.64249 8.04406 6.08328 8.28662 5.5 8.28729Z" fill="url(#paint0_linear_167_118)"/>
<defs>
<linearGradient id="paint0_linear_167_118" x1="5.5" y1="0.236206" x2="5.5" y2="16.3384" gradientUnits="userSpaceOnUse">
<stop stop-color="#2095F2"/>
<stop offset="1" stop-color="#7170FF"/>
</linearGradient>
</defs>
</svg>
