<svg width="53" height="64" viewBox="0 0 53 64" fill="none" xmlns="http://www.w3.org/2000/svg">
<path fill-rule="evenodd" clip-rule="evenodd" d="M33.3998 0.140701C32.1299 0.547496 30.9103 1.62529 30.3296 2.8538C30.0363 3.47412 30.0018 3.68764 30.0018 4.88087C30.0018 6.13072 30.0265 6.2664 30.3943 7.0361C31.8732 10.1319 35.9989 10.8331 38.4478 8.40502C40.91 5.96388 40.2063 1.89423 37.0672 0.419941C36.3387 0.0777719 36.0984 0.0275742 35.0769 0.0032028C34.3555 -0.0138935 33.7198 0.0382442 33.3998 0.140701ZM22.2277 1.70508C20.9572 2.06107 19.901 2.96644 19.3179 4.19944C19.0407 4.78581 18.9957 5.04153 18.9957 6.03275C18.9957 7.02021 19.0411 7.28066 19.3138 7.85708C20.9185 11.2491 25.5766 11.3727 27.382 8.07133C27.783 7.33801 27.8006 7.25241 27.8006 6.03275C27.8006 4.50281 27.5937 3.9533 26.6423 2.95577C25.5344 1.79432 23.7319 1.28361 22.2277 1.70508ZM12.5747 7.601C11.1366 8.03472 10.0693 9.15883 9.69065 10.6384C9.30971 12.1268 9.88301 13.7913 11.107 14.7507C12.8027 16.0796 15.2275 15.9179 16.6789 14.3794C17.5329 13.4741 17.7715 12.8566 17.7722 11.5496C17.7727 10.5992 17.7287 10.3692 17.4304 9.7669C17.0015 8.90117 16.0817 8.066 15.1942 7.7368C14.5042 7.48084 13.1978 7.41306 12.5747 7.601ZM5.05462 16.5601C4.14197 17.0035 3.51328 17.6447 3.09003 18.5636C2.79739 19.1987 2.76877 19.3817 2.81439 20.3218C2.8567 21.1939 2.92555 21.4805 3.22235 22.0207C3.62835 22.7597 4.27356 23.3547 5.09914 23.7517C5.54525 23.9663 5.88754 24.0258 6.70554 24.0314C7.6023 24.0375 7.83966 23.9924 8.43497 23.7026C9.24013 23.3105 10.0417 22.4981 10.4153 21.6954C10.7917 20.8868 10.7795 19.2999 10.3908 18.5051C9.99062 17.6869 9.39055 17.047 8.64494 16.6435C8.08632 16.341 7.82719 16.2824 6.88898 16.2462C5.87323 16.2069 5.73174 16.231 5.05462 16.5601ZM2.08566 27.136C0.795988 27.775 0.0989337 28.8111 0.00929495 30.2222C-0.0612665 31.3353 0.269039 32.2394 1.03017 33.016C1.81907 33.8206 2.50695 34.0986 3.70943 34.0986C4.91191 34.0986 5.59979 33.8206 6.38869 33.016C8.16556 31.2031 7.6111 28.1954 5.3003 27.1114C4.24005 26.6142 3.12183 26.6227 2.08566 27.136ZM3.69035 37.1979C2.60173 37.4142 1.73958 38.0811 1.18719 39.1341C0.787917 39.8952 0.778378 41.3909 1.16824 42.1188C1.60176 42.9289 2.02231 43.341 2.81671 43.7346C5.85257 45.2387 9.0441 42.0332 7.5063 39.0243C6.81768 37.677 5.19281 36.8993 3.69035 37.1979ZM8.05 46.2728C7.46986 46.4613 7.01029 46.754 6.56613 47.2177C5.8363 47.9796 5.66938 48.4048 5.67011 49.5011C5.67072 50.3173 5.72282 50.5695 5.9987 51.0919C6.60514 52.2399 7.69401 52.8815 9.02906 52.8778C10.3637 52.874 11.4687 52.2159 12.0217 51.0951C12.8681 49.3799 12.3106 47.5322 10.6567 46.5712C10.2277 46.3219 9.90808 46.2412 9.2301 46.2115C8.74962 46.1903 8.21852 46.218 8.05 46.2728ZM50.6552 51.1355C49.9271 51.4272 49.6601 52.4255 50.1132 53.1623C50.7888 54.2611 52.6133 53.7065 52.6133 52.4023C52.6133 51.3908 51.6208 50.7487 50.6552 51.1355ZM14.9868 52.6459C13.5183 53.1654 12.7252 54.3807 12.8498 55.9201C12.9191 56.7756 13.143 57.2701 13.7206 57.8427C14.3819 58.4985 14.9539 58.7167 15.9996 58.7121C17.0991 58.7074 17.7041 58.4405 18.3739 57.6646C18.8161 57.1524 19.1791 56.2324 19.1791 55.6242C19.1791 54.8841 18.7992 54.0233 18.2179 53.447C17.3234 52.5602 16.0922 52.2549 14.9868 52.6459ZM46.3111 54.4972C46.1339 54.5242 45.7637 54.7375 45.4884 54.9712C44.5951 55.7293 44.5222 56.829 45.3082 57.6915C46.8752 59.4112 49.5489 57.4866 48.4368 55.4394C48.2132 55.0277 47.7532 54.6827 47.2448 54.5452C46.9757 54.4726 46.7281 54.4209 46.6944 54.4305C46.6608 54.4402 46.4883 54.4701 46.3111 54.4972ZM23.3982 56.4584C20.736 57.1493 20.3416 60.6988 22.7867 61.9616C23.8334 62.5022 25.4102 62.22 26.2429 61.343C27.2603 60.2715 27.2603 58.3732 26.2429 57.3017C25.5853 56.6092 24.2932 56.2262 23.3982 56.4584ZM39.3126 57.0089C38.3365 57.3652 37.7503 58.1888 37.741 59.217C37.7272 60.7489 39.1767 61.8515 40.6776 61.4508C42.2216 61.0386 42.8927 59.1907 41.9692 57.8948C41.3691 57.0527 40.2317 56.6734 39.3126 57.0089ZM31.855 57.938C29.9993 58.3808 29.143 60.5984 30.2174 62.1793C30.9619 63.2746 32.4941 63.7064 33.6567 63.1484C35.4781 62.2741 35.8768 60.0234 34.4543 58.6447C33.7927 58.0035 32.7589 57.7225 31.855 57.938Z" fill="#1089BB"/>
</svg>
