<svg width="210" height="77" viewBox="0 0 210 77" fill="none" xmlns="http://www.w3.org/2000/svg">
<path fill-rule="evenodd" clip-rule="evenodd" d="M40.5694 0.170904C39.0269 0.665022 37.5455 1.97418 36.8401 3.4664C36.4839 4.21988 36.442 4.47923 36.442 5.9286C36.442 7.44674 36.472 7.61155 36.9187 8.54647C38.7152 12.3068 43.7265 13.1585 46.701 10.2092C49.6917 7.24409 48.837 2.30084 45.024 0.510085C44.1391 0.0944664 43.8473 0.0334932 42.6065 0.00389031C41.7302 -0.0168759 40.9581 0.0464537 40.5694 0.170904ZM26.9991 2.07109C25.4559 2.5035 24.173 3.60322 23.4647 5.10089C23.128 5.81313 23.0733 6.12374 23.0733 7.32774C23.0733 8.52717 23.1284 8.84353 23.4597 9.54369C25.4088 13.6638 31.0669 13.814 33.2598 9.80393C33.7469 8.91319 33.7683 8.80921 33.7683 7.32774C33.7683 5.46938 33.517 4.80192 32.3613 3.59026C31.0157 2.17948 28.8262 1.55915 26.9991 2.07109ZM15.274 9.23264C13.5272 9.75945 12.2307 11.1249 11.7708 12.9221C11.3081 14.7299 12.0045 16.7518 13.4912 17.917C15.5509 19.5312 18.4962 19.3349 20.2592 17.4661C21.2965 16.3665 21.5863 15.6164 21.5872 14.0289C21.5878 12.8744 21.5343 12.595 21.172 11.8635C20.6511 10.8119 19.5337 9.79745 18.4558 9.39759C17.6177 9.08668 16.0309 9.00435 15.274 9.23264ZM52.6097 18.5875C52.3288 18.7085 51.9937 19.0456 51.7737 19.4284C51.5717 19.7798 49.744 23.8915 47.7121 28.5657L44.0176 37.0639L43.9793 27.8661L43.9411 18.6682H42.9024H41.8638V28.5504C41.8638 37.3916 41.8893 38.4861 42.1066 38.94C42.6983 40.1761 44.5011 40.1871 45.2477 38.9593C45.4089 38.694 47.2279 34.6331 49.2899 29.9349C51.352 25.2368 53.0982 21.3298 53.1703 21.2529C53.2462 21.1719 53.3014 25.0016 53.3014 30.3473V39.5817H54.3461H55.391L55.3488 29.6772C55.3096 20.4305 55.2888 19.7402 55.037 19.2825C54.5943 18.4782 53.5537 18.1802 52.6097 18.5875ZM6.13965 20.1149C5.03109 20.6535 4.26744 21.4323 3.75334 22.5485C3.39788 23.3199 3.36312 23.5422 3.41853 24.684C3.46992 25.7434 3.55355 26.0916 3.91406 26.7477C4.40722 27.6454 5.19092 28.368 6.19372 28.8502C6.7356 29.1109 7.15136 29.1832 8.14495 29.19C9.23421 29.1974 9.52252 29.1426 10.2456 28.7906C11.2236 28.3143 12.1973 27.3275 12.6511 26.3525C13.1083 25.3703 13.0935 23.4428 12.6212 22.4774C12.1352 21.4835 11.4063 20.7063 10.5007 20.2162C9.82213 19.8487 9.50737 19.7776 8.36777 19.7336C7.13398 19.6859 6.96212 19.7152 6.13965 20.1149ZM152.947 24.8421C152.707 25.0291 151.656 27.1228 149.845 31.0227C148.338 34.2665 147.055 36.9227 146.994 36.9255C146.932 36.9283 146.882 34.1802 146.882 30.8186V24.7066H145.917H144.951V31.5597C144.951 39.2229 144.956 39.2669 145.902 39.6587C146.568 39.9347 147.234 39.8007 147.745 39.2878C147.981 39.051 149.204 36.6028 150.733 33.3064C152.156 30.237 153.376 27.6627 153.444 27.5859C153.511 27.5088 153.567 30.1765 153.567 33.5138V39.5817H154.606H155.646L155.64 33.0646C155.636 29.4801 155.578 26.2624 155.51 25.9138C155.327 24.9767 154.864 24.5593 154.007 24.5593C153.544 24.5593 153.188 24.6544 152.947 24.8421ZM58.7975 32.1441V39.5817H59.763H60.7285V36.1943V32.8069H63.8479H66.9672V36.1943V39.5817H67.9327H68.8983V32.1441V24.7066H67.9327H66.9672V27.7994V30.8923H63.8479H60.7285V27.7994V24.7066H59.763H58.7975V32.1441ZM70.3837 25.5902V26.4739H72.7603H75.137V33.0278V39.5817H76.1025H77.068V33.0278V26.4739H79.3704H81.6728V25.5902V24.7066H76.0282H70.3837V25.5902ZM84.3442 24.9793C83.6381 25.3514 83.1961 26.0453 83.0829 26.9599C83.0308 27.3811 83.0097 30.0123 83.0361 32.8069C83.081 37.5754 83.1022 37.9187 83.381 38.388C83.5444 38.6631 83.8667 39.0276 84.0971 39.198C84.4955 39.4927 84.7168 39.5102 88.5905 39.5515L92.6648 39.5949V38.7046V37.8143H89.1229C84.7096 37.8143 85.0352 38.0167 84.9665 35.2324L84.9181 33.2695L88.1602 33.2223C91.2126 33.1779 91.4334 33.1558 91.9355 32.8462C92.8588 32.2768 93.0362 31.6423 93.0362 28.9081C93.0362 26.0802 92.8758 25.5861 91.7792 25.0379C91.1545 24.7256 90.9369 24.7066 87.9892 24.7066C85.2307 24.7066 84.8008 24.7387 84.3442 24.9793ZM96.8547 24.996C96.3531 25.2248 96.1471 25.4372 95.8892 25.9908C95.566 26.6851 95.5608 26.8047 95.5171 34.611L95.4727 42.5272H96.5198H97.5667V41.0621V39.5971L100.973 39.5525C104.845 39.502 104.918 39.4814 105.551 38.2532C105.88 37.6151 105.885 37.5165 105.885 32.1441C105.885 26.7717 105.88 26.6732 105.551 26.035C104.916 24.8036 104.851 24.7854 100.935 24.7426C97.7739 24.7082 97.4403 24.7288 96.8547 24.996ZM108.856 25.5835V26.4739H112.318C115.071 26.4739 115.839 26.5166 116.069 26.6826C116.324 26.8673 116.363 27.1132 116.406 28.8181L116.455 30.745L113.584 30.7459C110.373 30.7467 109.755 30.8553 109.066 31.5384C108.401 32.1971 108.209 33.2469 108.293 35.7508C108.375 38.2008 108.626 38.8434 109.685 39.3074C110.289 39.5725 110.627 39.5937 113.601 39.5528C117.306 39.5018 117.397 39.475 118.033 38.2475C118.371 37.5956 118.372 37.5746 118.33 31.9968C118.29 26.7065 118.272 26.3729 117.991 25.9003C117.828 25.6251 117.506 25.2606 117.275 25.0902C116.877 24.7958 116.654 24.778 112.856 24.7366L108.856 24.693V25.5835ZM121.185 32.1441V39.5817H122.148H123.11L123.15 36.1574L123.19 32.7332H125.987C128.585 32.7332 128.8 32.7537 128.995 33.0191C129.162 33.2447 129.206 33.967 129.206 36.4433V39.5817H130.179H131.152L131.107 35.9838C131.066 32.6173 131.043 32.3597 130.756 31.9796C130.096 31.1027 129.765 30.9744 128.009 30.9148C127.115 30.8844 126.384 30.832 126.384 30.7981C126.384 30.7644 127.441 29.4628 128.732 27.9057C130.024 26.3487 131.131 24.992 131.192 24.8907C131.277 24.7496 131.026 24.7066 130.116 24.7066H128.928L126.371 27.8068C124.346 30.2606 123.748 30.8977 123.502 30.8628C123.198 30.8198 123.189 30.7389 123.15 27.7626L123.11 24.7066H122.147H121.185V32.1441ZM132.325 25.5902V26.4739H134.628H136.93V33.0278V39.5817H137.896H138.861V33.0278V26.4739H141.238H143.614V25.5902V24.7066H137.97H132.325V25.5902ZM159.731 24.9132C159.173 25.1575 158.841 25.5235 158.548 26.2168C158.357 26.671 158.32 27.6286 158.32 32.1175C158.32 37.705 158.363 38.1472 158.972 38.8275C159.579 39.5052 160.023 39.582 163.329 39.5784C166.067 39.5756 166.488 39.5428 167.053 39.2883C167.98 38.871 168.292 38.0928 168.387 35.963C168.482 33.8446 168.347 32.8103 167.891 32.1438L167.53 31.616L167.833 31.2939C168.275 30.8226 168.347 30.4229 168.341 28.4622C168.334 26.2168 168.048 25.4475 167.053 24.9999C166.485 24.7444 166.074 24.7133 163.296 24.7156C161.035 24.7175 160.054 24.7718 159.731 24.9132ZM171.095 32.1441V39.5817H172.06H173.026V36.1943V32.8069H176.071H179.116V36.1943V39.5817H180.081H181.047V32.1441V24.7066H180.081H179.116V27.7994V30.8923H176.071H173.026V27.7994V24.7066H172.06H171.095V32.1441ZM184.048 31.2236C184.09 37.5012 184.103 37.7623 184.402 38.3298C184.583 38.6743 184.954 39.0574 185.293 39.2522C185.855 39.5743 185.983 39.5842 189.095 39.5468C192.76 39.5027 192.853 39.4753 193.495 38.2475C193.819 37.6263 193.834 37.464 193.792 35.016C193.75 32.6363 193.721 32.3976 193.41 31.902C192.806 30.9376 192.362 30.8249 188.957 30.7709L185.949 30.7233V27.7149V24.7066H184.976H184.003L184.048 31.2236ZM195.158 32.1441V39.5817H196.124H197.089V32.1441V24.7066H196.124H195.158V32.1441ZM201.294 24.9892C200.851 25.1914 200.573 25.4575 200.329 25.9106C199.988 26.5439 199.986 26.5802 199.986 32.1441C199.986 40.0142 199.644 39.5733 205.742 39.5784L209.567 39.5817V38.698V37.8143H206.076C201.678 37.8143 201.991 38.0112 201.991 35.2474V33.2696L205.148 33.2223C208.004 33.1795 208.353 33.1466 208.819 32.8754C209.794 32.3073 209.932 31.8612 209.983 29.1249C210.026 26.8294 210.009 26.6586 209.686 26.0408C209.042 24.8089 208.961 24.7854 205.211 24.7425C202.222 24.7083 201.859 24.7312 201.294 24.9892ZM90.7544 26.7556C91.0903 27.0255 91.1052 27.1181 91.1052 28.9424C91.1052 30.3405 91.0509 30.9121 90.9014 31.0908C90.7244 31.3017 90.3136 31.3341 87.8081 31.3341H84.9187L84.9669 29.1851C85.0304 26.3452 84.8837 26.4739 88.0601 26.4739C90.1471 26.4739 90.4422 26.5048 90.7544 26.7556ZM103.657 26.7685C103.943 27.0517 103.954 27.2593 103.954 32.1441C103.954 37.0289 103.943 37.2366 103.657 37.5198C103.38 37.7941 103.162 37.8143 100.463 37.8143H97.5667V32.4387C97.5667 27.2593 97.5775 27.0523 97.8638 26.7685C98.1383 26.4963 98.3589 26.4739 100.76 26.4739C103.162 26.4739 103.382 26.4963 103.657 26.7685ZM166.044 26.7685C166.304 27.0262 166.341 27.2593 166.341 28.6346C166.341 30.8588 166.519 30.745 163.039 30.745H160.227L160.276 28.8181C160.32 27.1132 160.359 26.8673 160.614 26.6826C160.835 26.5228 161.469 26.4739 163.325 26.4739C165.549 26.4739 165.771 26.4981 166.044 26.7685ZM207.719 26.6826C207.973 26.8665 208.013 27.1131 208.056 28.7519C208.097 30.2709 208.062 30.6785 207.867 30.9731L207.629 31.3341H204.81H201.991V29.1986C201.991 26.3238 201.825 26.4739 205.008 26.4739C206.864 26.4739 207.498 26.5228 207.719 26.6826ZM2.53337 32.9611C0.966855 33.7372 0.120171 34.9957 0.0112902 36.7097C-0.074418 38.0618 0.326791 39.1599 1.25131 40.1032C2.20955 41.0805 3.04509 41.4182 4.5057 41.4182C5.9663 41.4182 6.80185 41.0805 7.76009 40.1032C9.91839 37.9012 9.2449 34.2478 6.43807 32.9312C5.15022 32.3272 3.79196 32.3375 2.53337 32.9611ZM116.405 35.0283C116.362 37.1722 116.33 37.4167 116.069 37.6056C115.848 37.7654 115.216 37.8143 113.374 37.8143C110.34 37.8143 110.368 37.8298 110.241 36.0352C110.134 34.5196 110.28 33.183 110.585 32.8804C110.768 32.6996 111.32 32.6596 113.63 32.6596H116.452L116.405 35.0283ZM166.07 32.9033C166.308 33.1172 166.341 33.3977 166.341 35.1861C166.341 37.9491 166.496 37.8143 163.325 37.8143C161.469 37.8143 160.835 37.7654 160.614 37.6056C160.353 37.4167 160.321 37.1722 160.278 35.0283L160.231 32.6596H163.014C165.396 32.6596 165.837 32.6948 166.07 32.9033ZM191.676 33.0195C191.871 33.3156 191.905 33.7363 191.865 35.3882C191.821 37.1744 191.784 37.4199 191.528 37.6056C191.309 37.764 190.695 37.8143 188.982 37.8143C185.887 37.8143 186.038 37.9578 185.972 34.9557L185.922 32.6596H188.68H191.438L191.676 33.0195ZM4.48253 45.1828C3.16021 45.4455 2.113 46.2556 1.44204 47.5347C0.957051 48.4592 0.945465 50.2758 1.41901 51.1601C1.94559 52.1441 2.45643 52.6446 3.42135 53.1227C7.10888 54.9497 10.9855 51.0561 9.1176 47.4013C8.28117 45.7647 6.3075 44.8201 4.48253 45.1828ZM80.1703 47.665C79.9644 47.8264 78.8828 49.81 77.5879 52.4006L75.3598 56.8586L75.3206 52.1966L75.2814 47.5347H74.4665H73.6516V52.917V58.2994L74.0162 58.6608C74.4997 59.1404 75.2644 59.1449 75.8311 58.6719C76.1122 58.4372 76.9591 56.878 78.3917 53.959C79.569 51.5597 80.5883 49.5966 80.6569 49.5966C80.7254 49.5966 80.7815 51.6842 80.7815 54.2358V58.8751H81.5243H82.267V53.4928V48.1104L81.9023 47.749C81.4552 47.3055 80.677 47.2678 80.1703 47.665ZM113.231 47.749L112.866 48.1104V53.4928V58.8751H113.609H114.352V54.1622C114.352 51.5701 114.405 49.4493 114.469 49.4493C114.533 49.4493 115.111 50.5789 115.753 51.9597C116.395 53.3404 117.059 54.5665 117.229 54.6843C117.677 54.9957 118.292 54.9471 118.712 54.5672C118.913 54.3849 119.559 53.1754 120.147 51.8794C120.735 50.5833 121.276 49.4599 121.349 49.383C121.427 49.3007 121.482 51.224 121.482 54.0591V58.8751H122.225H122.967V53.4928V48.1104L122.603 47.749C122.146 47.2959 121.244 47.2569 120.717 47.6674C120.504 47.8337 119.884 48.9711 119.191 50.4657C118.548 51.8508 117.976 52.984 117.919 52.984C117.862 52.984 117.3 51.8738 116.67 50.5171C116.04 49.1603 115.357 47.9011 115.153 47.7188C114.628 47.2513 113.718 47.2656 113.231 47.749ZM66.4013 47.8331C65.5378 48.355 65.4818 48.6842 65.4821 53.237C65.4823 56.8374 65.5135 57.3905 65.7421 57.8442C66.1932 58.7398 66.6889 58.8747 69.5296 58.8748L72.0176 58.8751V58.2124V57.5496H69.854C68.6466 57.5496 67.5635 57.4822 67.403 57.3972C67.1299 57.2521 67.1158 57.0484 67.1158 53.2292C67.1158 50.3023 67.164 49.1658 67.294 49.0369C67.4172 48.9148 68.1753 48.8602 69.7449 48.8602H72.0176V48.1974V47.5347L69.4553 47.5353C67.1473 47.5357 66.8441 47.5653 66.4013 47.8331ZM85.5643 47.7811C84.6053 48.2497 84.5693 48.4456 84.5693 53.2049C84.5693 59.0371 84.4553 58.8751 88.5653 58.8751H91.0309V58.2124V57.5496H88.8112C86.6858 57.5496 86.5816 57.5358 86.3603 57.2222C86.1659 56.9472 86.129 56.3063 86.129 53.2049C86.129 50.1035 86.1659 49.4626 86.3603 49.1876C86.5816 48.874 86.6858 48.8602 88.8112 48.8602H91.0309V48.1974V47.5347L88.5428 47.5381C86.5497 47.5407 85.9572 47.589 85.5643 47.7811ZM92.2192 48.1974V48.8602H94.1502H96.0813V53.8676V58.8751H96.824H97.5667V53.8676V48.8602H99.4977H101.429V48.1974V47.5347H96.824H92.2192V48.1974ZM103.731 47.6752C103.568 47.7422 103.267 47.9752 103.063 48.193L102.691 48.5889L102.653 53.0324C102.611 57.9116 102.617 57.9527 103.495 58.5393C103.98 58.8635 104.111 58.8751 107.244 58.8751H110.49V58.2124V57.5496H107.527C103.93 57.5496 104.103 57.6553 104.103 55.4549V54.0149H106.632C110.539 54.0149 110.713 53.8766 110.713 50.7683C110.713 47.6552 110.552 47.5297 106.595 47.544C105.183 47.5491 103.895 47.6082 103.731 47.6752ZM125.374 52.5053C125.414 56.9792 125.445 57.525 125.688 57.9663C126.119 58.7486 126.634 58.8751 129.387 58.8748C133.131 58.8745 133.406 58.6324 133.334 55.3874C133.296 53.6864 133.252 53.3949 132.979 53.031C132.444 52.3177 132.15 52.2522 129.466 52.2498L126.978 52.2476V49.8911V47.5347H126.154H125.329L125.374 52.5053ZM134.553 53.2049V58.8751H135.296H136.039V53.2049V47.5347H135.296H134.553V53.2049ZM108.975 49.0369C109.261 49.3204 109.215 52.1654 108.92 52.458C108.727 52.6483 108.28 52.6894 106.394 52.6894H104.103V51.1022C104.103 48.8019 104.035 48.8602 106.681 48.8602C108.128 48.8602 108.853 48.916 108.975 49.0369ZM131.602 53.8167C131.746 53.9887 131.805 54.5108 131.805 55.5958C131.805 57.5861 131.851 57.5496 129.337 57.5496C127.815 57.5496 127.399 57.5044 127.211 57.3182C127.025 57.1337 126.978 56.7306 126.978 55.33V53.5731H129.188C131.062 53.5731 131.429 53.6101 131.602 53.8167ZM9.77802 56.2057C9.07334 56.4347 8.51512 56.7902 7.97562 57.3534C7.08913 58.2789 6.88637 58.7954 6.88726 60.127C6.888 61.1185 6.95128 61.4248 7.28639 62.0593C8.023 63.4537 9.34561 64.2331 10.9672 64.2285C12.5884 64.224 13.9306 63.4245 14.6023 62.0632C15.6304 59.9798 14.9532 57.7355 12.9443 56.5681C12.4232 56.2653 12.0349 56.1674 11.2114 56.1313C10.6278 56.1055 9.98271 56.1391 9.77802 56.2057ZM61.5288 62.1123C60.6444 62.4666 60.3202 63.6792 60.8705 64.5742C61.6912 65.9088 63.9073 65.2352 63.9073 63.651C63.9073 62.4223 62.7017 61.6425 61.5288 62.1123ZM18.2039 63.9469C16.4202 64.5779 15.4567 66.054 15.6081 67.9239C15.6923 68.9631 15.9643 69.5637 16.6659 70.2593C17.4692 71.0557 18.1639 71.3209 19.4341 71.3153C20.7696 71.3095 21.5044 70.9854 22.318 70.0429C22.8551 69.4208 23.2961 68.3033 23.2961 67.5645C23.2961 66.6655 22.8346 65.62 22.1286 64.92C21.042 63.8428 19.5465 63.472 18.2039 63.9469ZM56.2522 66.1956C56.037 66.2284 55.5873 66.4875 55.253 66.7713C54.1679 67.6922 54.0794 69.0279 55.034 70.0756C56.9374 72.1645 60.1851 69.8267 58.8343 67.3401C58.5626 66.8399 58.004 66.4209 57.3863 66.2539C57.0595 66.1657 56.7587 66.1029 56.7179 66.1146C56.677 66.1264 56.4674 66.1627 56.2522 66.1956ZM28.4208 68.5778C25.1872 69.417 24.7082 73.7284 27.6781 75.2623C28.9495 75.9189 30.8648 75.5762 31.8762 74.5109C33.112 73.2094 33.112 70.9036 31.8762 69.6021C31.0775 68.761 29.508 68.2958 28.4208 68.5778ZM47.7515 69.2464C46.5658 69.6793 45.8537 70.6796 45.8425 71.9285C45.8257 73.7892 47.5863 75.1286 49.4095 74.6418C51.2849 74.1412 52.1 71.8966 50.9783 70.3225C50.2494 69.2996 48.8678 68.8389 47.7515 69.2464ZM38.693 70.375C36.4389 70.9129 35.3988 73.6065 36.7039 75.5267C37.6082 76.8572 39.4693 77.3816 40.8815 76.7039C43.0938 75.6418 43.5781 72.9081 41.8503 71.2334C41.0467 70.4546 39.7909 70.1132 38.693 70.375Z" fill="white"/>
</svg>
