<svg width="173" height="64" viewBox="0 0 173 64" fill="none" xmlns="http://www.w3.org/2000/svg">
<path fill-rule="evenodd" clip-rule="evenodd" d="M33.3998 0.140701C32.1299 0.547496 30.9103 1.62529 30.3296 2.8538C30.0363 3.47412 30.0018 3.68764 30.0018 4.88087C30.0018 6.13072 30.0265 6.2664 30.3943 7.0361C31.8732 10.1319 35.9989 10.8331 38.4478 8.40502C40.91 5.96388 40.2063 1.89423 37.0672 0.419941C36.3387 0.0777719 36.0984 0.0275742 35.0769 0.0032028C34.3555 -0.0138935 33.7198 0.0382442 33.3998 0.140701ZM22.2277 1.70508C20.9572 2.06107 19.901 2.96644 19.3179 4.19944C19.0407 4.78581 18.9957 5.04153 18.9957 6.03275C18.9957 7.02021 19.0411 7.28066 19.3138 7.85708C20.9185 11.2491 25.5766 11.3727 27.382 8.07133C27.783 7.33801 27.8006 7.25241 27.8006 6.03275C27.8006 4.50281 27.5937 3.9533 26.6423 2.95577C25.5344 1.79432 23.7319 1.28361 22.2277 1.70508ZM12.5747 7.601C11.1366 8.03472 10.0693 9.15883 9.69065 10.6384C9.30971 12.1268 9.88301 13.7913 11.107 14.7507C12.8027 16.0796 15.2275 15.9179 16.6789 14.3794C17.5329 13.4741 17.7715 12.8566 17.7722 11.5496C17.7727 10.5992 17.7287 10.3692 17.4304 9.7669C17.0015 8.90117 16.0817 8.066 15.1942 7.7368C14.5042 7.48084 13.1978 7.41306 12.5747 7.601ZM5.05462 16.5601C4.14197 17.0035 3.51328 17.6447 3.09003 18.5636C2.79739 19.1987 2.76877 19.3817 2.81439 20.3218C2.8567 21.1939 2.92555 21.4805 3.22235 22.0207C3.62835 22.7597 4.27356 23.3547 5.09914 23.7517C5.54525 23.9663 5.88754 24.0258 6.70554 24.0314C7.6023 24.0375 7.83966 23.9924 8.43497 23.7026C9.24013 23.3105 10.0417 22.4981 10.4153 21.6954C10.7917 20.8868 10.7795 19.2999 10.3908 18.5051C9.99062 17.6869 9.39055 17.047 8.64494 16.6435C8.08632 16.341 7.82719 16.2824 6.88898 16.2462C5.87323 16.2069 5.73174 16.231 5.05462 16.5601ZM2.08566 27.136C0.795988 27.775 0.0989337 28.8111 0.00929495 30.2222C-0.0612665 31.3353 0.269039 32.2393 1.03017 33.016C1.81907 33.8206 2.50695 34.0986 3.70943 34.0986C4.91191 34.0986 5.59979 33.8206 6.38869 33.016C8.16556 31.2031 7.6111 28.1954 5.3003 27.1114C4.24005 26.6142 3.12183 26.6227 2.08566 27.136ZM3.69035 37.1979C2.60173 37.4142 1.73958 38.0811 1.18719 39.1341C0.787917 39.8952 0.778378 41.3909 1.16824 42.1188C1.60176 42.9289 2.02231 43.341 2.81671 43.7346C5.85257 45.2387 9.0441 42.0332 7.5063 39.0243C6.81768 37.677 5.19281 36.8993 3.69035 37.1979ZM66.0022 39.2415C65.8327 39.3743 64.9422 41.0073 63.8762 43.1401L62.0419 46.8103L62.0096 42.9722L61.9773 39.1341H61.3064H60.6355V43.5652V47.5738C60.6355 47.8443 60.7436 48.1036 60.9358 48.294C61.3338 48.6888 61.9634 48.6926 62.4299 48.3031C62.6613 48.11 63.3586 46.8263 64.5379 44.4231C65.5072 42.4478 66.3464 40.8316 66.4029 40.8316C66.4592 40.8316 66.5055 42.5504 66.5055 44.651V48.4704H67.1169H67.7284V44.0393V40.0308C67.7284 39.7603 67.6203 39.501 67.4281 39.3106C67.0601 38.9455 66.4194 38.9144 66.0022 39.2415ZM93.2204 39.3106C93.0282 39.501 92.9202 39.7603 92.9202 40.0308V44.0393V48.4704H93.5316H94.1431V44.5904C94.1431 42.4564 94.1865 40.7104 94.2394 40.7104C94.2924 40.7104 94.7682 41.6404 95.2966 42.7771C95.825 43.9138 96.3718 44.9232 96.5116 45.0203C96.8806 45.2766 97.3872 45.2366 97.7324 44.9239C97.898 44.7737 98.4297 43.778 98.914 42.711C99.3982 41.644 99.8436 40.7191 99.9037 40.6558C99.968 40.5881 100.013 42.1715 100.013 44.5055V48.4704H100.624H101.236V44.0393V40.0308C101.236 39.7603 101.128 39.501 100.936 39.3106C100.56 38.9376 99.8168 38.9055 99.3836 39.2434C99.2081 39.3803 98.6972 40.3167 98.1267 41.5471C97.5979 42.6875 97.1269 43.6204 97.08 43.6204C97.033 43.6204 96.5703 42.7064 96.0516 41.5895C95.5329 40.4725 94.9707 39.4358 94.8025 39.2857C94.3706 38.9009 93.6216 38.9126 93.2204 39.3106ZM54.6665 39.3798C53.9557 39.8095 53.9096 40.0805 53.9098 43.8287C53.9099 46.7928 53.9356 47.2482 54.1238 47.6217C54.4952 48.359 54.9033 48.4701 57.242 48.4702L59.2903 48.4704V47.9248V47.3792H57.5091C56.5151 47.3792 55.6233 47.3236 55.4913 47.2537C55.2664 47.1343 55.2548 46.9666 55.2548 43.8223C55.2548 41.4127 55.2945 40.477 55.4015 40.3709C55.5029 40.2704 56.1271 40.2254 57.4193 40.2254H59.2903V39.6798V39.1341L57.1808 39.1346C55.2807 39.135 55.0311 39.1594 54.6665 39.3798ZM70.443 39.337C69.6535 39.7228 69.6239 39.8841 69.6239 43.8023C69.6239 48.6038 69.53 48.4704 72.9136 48.4704H74.9435V47.9248V47.3792H73.1161C71.3663 47.3792 71.2805 47.3678 71.0983 47.1096C70.9382 46.8833 70.9079 46.3556 70.9079 43.8023C70.9079 41.249 70.9382 40.7213 71.0983 40.4949C71.2805 40.2368 71.3663 40.2254 73.1161 40.2254H74.9435V39.6798V39.1341L72.8951 39.1369C71.2542 39.1391 70.7664 39.1789 70.443 39.337ZM75.9218 39.6798V40.2254H77.5116H79.1014V44.3479V48.4704H79.7128H80.3243V44.3479V40.2254H81.914H83.5038V39.6798V39.1341H79.7128H75.9218V39.6798ZM85.3993 39.2498C85.2648 39.305 85.0172 39.4968 84.849 39.6761C84.6524 39.8857 84.5419 40.1616 84.5394 40.4489L84.5117 43.6603C84.4771 47.6772 84.4824 47.711 85.2051 48.194C85.6045 48.4609 85.712 48.4704 88.2912 48.4704H90.9635V47.9248V47.3792H88.5247C85.5627 47.3792 85.705 47.4662 85.705 45.6546V44.4692H87.7879C91.0039 44.4692 91.1469 44.3553 91.1469 41.7963C91.1469 39.2333 91.0149 39.13 87.7573 39.1418C86.5949 39.146 85.5338 39.1946 85.3993 39.2498ZM103.217 43.2263C103.25 46.9096 103.276 47.3589 103.476 47.7222C103.83 48.3663 104.255 48.4704 106.521 48.4702C109.604 48.4699 109.829 48.2706 109.77 45.5991C109.739 44.1987 109.703 43.9587 109.479 43.6591C109.038 43.0719 108.796 43.0179 106.586 43.016L104.538 43.0142V41.0742V39.1341H103.859H103.18L103.217 43.2263ZM110.775 43.8023V48.4704H111.386H111.997V43.8023V39.1341H111.386H110.775V43.8023ZM89.7161 40.3709C89.9516 40.6043 89.9138 42.9465 89.6708 43.1874C89.5127 43.3441 89.144 43.3779 87.5919 43.3779H85.705V42.0712C85.705 40.1774 85.6498 40.2254 87.8276 40.2254C89.0192 40.2254 89.6158 40.2714 89.7161 40.3709ZM108.344 44.306C108.463 44.4476 108.512 44.8774 108.512 45.7707C108.512 47.4092 108.55 47.3792 106.48 47.3792C105.227 47.3792 104.885 47.342 104.73 47.1887C104.577 47.0368 104.538 46.7049 104.538 45.5518V44.1054H106.357C107.9 44.1054 108.202 44.1358 108.344 44.306ZM8.05 46.2728C7.46986 46.4613 7.01029 46.754 6.56613 47.2177C5.8363 47.9796 5.66938 48.4048 5.67011 49.5011C5.67072 50.3173 5.72282 50.5695 5.9987 51.0919C6.60514 52.2399 7.69401 52.8815 9.02906 52.8778C10.3637 52.874 11.4687 52.2159 12.0217 51.0951C12.8681 49.3799 12.3106 47.5322 10.6567 46.5712C10.2277 46.3219 9.90808 46.2412 9.2301 46.2115C8.74962 46.1903 8.21852 46.218 8.05 46.2728ZM50.6552 51.1355C49.9271 51.4272 49.6601 52.4255 50.1132 53.1623C50.7888 54.2611 52.6133 53.7065 52.6133 52.4023C52.6133 51.3908 51.6208 50.7487 50.6552 51.1355ZM14.9868 52.6459C13.5183 53.1654 12.7252 54.3807 12.8498 55.9201C12.9191 56.7756 13.143 57.2701 13.7206 57.8427C14.3819 58.4985 14.9539 58.7167 15.9996 58.7121C17.0991 58.7074 17.7041 58.4405 18.3739 57.6646C18.8161 57.1525 19.1791 56.2324 19.1791 55.6242C19.1791 54.8841 18.7992 54.0233 18.2179 53.447C17.3234 52.5602 16.0922 52.2549 14.9868 52.6459ZM46.3111 54.4972C46.1339 54.5242 45.7637 54.7375 45.4884 54.9712C44.5951 55.7293 44.5222 56.829 45.3082 57.6915C46.8752 59.4112 49.5489 57.4866 48.4368 55.4394C48.2132 55.0277 47.7532 54.6827 47.2448 54.5452C46.9757 54.4726 46.7281 54.4209 46.6944 54.4305C46.6608 54.4402 46.4883 54.4701 46.3111 54.4972ZM23.3982 56.4584C20.736 57.1493 20.3416 60.6988 22.7867 61.9616C23.8334 62.5022 25.4102 62.22 26.2429 61.343C27.2603 60.2715 27.2603 58.3732 26.2429 57.3017C25.5853 56.6092 24.2932 56.2262 23.3982 56.4584ZM39.3126 57.0089C38.3365 57.3652 37.7503 58.1888 37.741 59.217C37.7271 60.7489 39.1767 61.8515 40.6776 61.4508C42.2216 61.0387 42.8927 59.1907 41.9692 57.8948C41.3691 57.0527 40.2317 56.6734 39.3126 57.0089ZM31.855 57.938C29.9993 58.3808 29.143 60.5984 30.2174 62.1793C30.9619 63.2746 32.4941 63.7064 33.6567 63.1484C35.4781 62.2741 35.8768 60.0234 34.4543 58.6447C33.7927 58.0035 32.7589 57.7225 31.855 57.938Z" fill="#1089BB"/>
<path fill-rule="evenodd" clip-rule="evenodd" d="M43.4245 15.7916C43.1932 15.8913 42.9173 16.1688 42.7362 16.484C42.5699 16.7733 41.0653 20.1583 39.3924 24.0065L36.3508 31.0029L36.3193 23.4305L36.2879 15.8581H35.4327H34.5776V23.9939C34.5776 31.2726 34.5987 32.1737 34.7776 32.5474C35.2647 33.565 36.7489 33.5741 37.3635 32.5632C37.4962 32.3449 38.9938 29.0016 40.6914 25.1337C42.389 21.2658 43.8267 18.0493 43.886 17.986C43.9485 17.9193 43.994 21.0722 43.994 25.4732V33.0756H44.854H45.7142L45.6795 24.9215C45.6472 17.3089 45.6301 16.7406 45.4228 16.3638C45.0584 15.7017 44.2016 15.4564 43.4245 15.7916ZM126.03 20.9409C125.832 21.0949 124.967 22.8186 123.476 26.0293C122.235 28.6998 121.179 30.8866 121.129 30.8889C121.078 30.8912 121.037 28.6288 121.037 25.8612V20.8293H120.242H119.447V26.4714C119.447 32.7803 119.451 32.8165 120.23 33.1391C120.778 33.3663 121.326 33.2559 121.747 32.8337C121.942 32.6388 122.948 30.6232 124.207 27.9094C125.379 25.3824 126.383 23.2631 126.439 23.1998C126.494 23.1364 126.54 25.3326 126.54 28.0801V33.0756H127.396H128.252L128.247 27.7103C128.244 24.7593 128.196 22.1102 128.14 21.8232C127.989 21.0517 127.608 20.7081 126.902 20.7081C126.521 20.7081 126.228 20.7864 126.03 20.9409ZM48.5187 26.9525V33.0756H49.3136H50.1085V30.2869V27.4981H52.6766H55.2447V30.2869V33.0756H56.0396H56.8345V26.9525V20.8293H56.0396H55.2447V23.3756V25.9219H52.6766H50.1085V23.3756V20.8293H49.3136H48.5187V26.9525ZM58.0574 21.5568V22.2843H60.014H61.9706V27.68V33.0756H62.7655H63.5604V27.68V22.2843H65.4559H67.3514V21.5568V20.8293H62.7044H58.0574V21.5568ZM69.5507 21.0539C68.9694 21.3602 68.6055 21.9315 68.5123 22.6845C68.4694 23.0312 68.452 25.1974 68.4738 27.4981C68.5107 31.424 68.5282 31.7066 68.7578 32.0929C68.8923 32.3194 69.1576 32.6195 69.3473 32.7598C69.6753 33.0024 69.8575 33.0168 73.0466 33.0508L76.4009 33.0866V32.3536V31.6206H73.4849C69.8515 31.6206 70.1196 31.7872 70.0631 29.495L70.0232 27.879L72.6923 27.8402C75.2053 27.8035 75.3871 27.7854 75.8004 27.5305C76.5606 27.0617 76.7066 26.5394 76.7066 24.2884C76.7066 21.9602 76.5745 21.5534 75.6718 21.1021C75.1574 20.845 74.9783 20.8293 72.5516 20.8293C70.2805 20.8293 69.9266 20.8558 69.5507 21.0539ZM79.8503 21.0676C79.4374 21.256 79.2677 21.4309 79.0554 21.8866C78.7893 22.4582 78.7851 22.5567 78.7491 28.9834L78.7125 35.5007H79.5746H80.4365V34.2945V33.0884L83.2405 33.0516C86.4288 33.01 86.4885 32.9931 87.0096 31.982C87.2803 31.4566 87.2847 31.3755 87.2847 26.9525C87.2847 22.5295 87.2803 22.4484 87.0096 21.923C86.487 20.9092 86.4335 20.8942 83.2099 20.859C80.6071 20.8307 80.3324 20.8476 79.8503 21.0676ZM89.7305 21.5513V22.2843H92.581C94.8475 22.2843 95.48 22.3195 95.6688 22.4562C95.8788 22.6082 95.9108 22.8107 95.9464 24.2143L95.9868 25.8006L93.6229 25.8013C90.98 25.8021 90.4705 25.8914 89.9033 26.4538C89.3563 26.9961 89.1977 27.8604 89.2668 29.9218C89.3346 31.9388 89.5416 32.4678 90.4129 32.8499C90.9104 33.0681 91.1891 33.0856 93.6372 33.0519C96.687 33.0099 96.7622 32.9879 97.286 31.9772C97.5641 31.4406 97.5649 31.4232 97.5306 26.8312C97.4978 22.4758 97.4826 22.2012 97.2514 21.8121C97.1169 21.5856 96.8516 21.2855 96.6618 21.1452C96.3342 20.9028 96.1504 20.8881 93.0237 20.8541L89.7305 20.8182V21.5513ZM99.8806 26.9525V33.0756H100.673H101.466L101.499 30.2566L101.532 27.4375H103.834C105.973 27.4375 106.15 27.4543 106.311 27.6728C106.448 27.8586 106.484 28.4532 106.484 30.4919V33.0756H107.285H108.086L108.05 30.1136C108.015 27.3421 107.997 27.13 107.761 26.817C107.217 26.0951 106.944 25.9895 105.499 25.9404C104.763 25.9154 104.161 25.8723 104.161 25.8444C104.161 25.8166 105.031 24.745 106.094 23.4631C107.158 22.1813 108.069 21.0643 108.119 20.9809C108.189 20.8647 107.982 20.8293 107.233 20.8293H106.256L104.15 23.3817C102.483 25.4018 101.991 25.9263 101.788 25.8976C101.538 25.8622 101.531 25.7956 101.499 23.3453L101.465 20.8293H100.673H99.8806V26.9525ZM109.052 21.5568V22.2843H110.948H112.843V27.68V33.0756H113.638H114.433V27.68V22.2843H116.39H118.346V21.5568V20.8293H113.699H109.052V21.5568ZM131.615 20.9994C131.155 21.2006 130.882 21.5019 130.641 22.0726C130.484 22.4466 130.453 23.2349 130.453 26.9305C130.453 31.5307 130.489 31.8947 130.99 32.4547C131.489 33.0127 131.855 33.0759 134.577 33.073C136.831 33.0707 137.177 33.0436 137.643 32.8341C138.406 32.4906 138.663 31.8499 138.741 30.0965C138.819 28.3524 138.708 27.5009 138.333 26.9522L138.035 26.5177L138.285 26.2525C138.649 25.8645 138.708 25.5354 138.703 23.9212C138.697 22.0726 138.462 21.4393 137.643 21.0709C137.175 20.8605 136.837 20.8349 134.55 20.8367C132.689 20.8383 131.881 20.883 131.615 20.9994ZM140.97 26.9525V33.0756H141.765H142.56V30.2869V27.4981H145.067H147.574V30.2869V33.0756H148.369H149.164V26.9525V20.8293H148.369H147.574V23.3756V25.9219H145.067H142.56V23.3756V20.8293H141.765H140.97V26.9525ZM151.634 26.1947C151.669 31.3629 151.68 31.5778 151.926 32.045C152.075 32.3286 152.38 32.644 152.66 32.8044C153.122 33.0696 153.228 33.0777 155.789 33.0469C158.807 33.0107 158.883 32.9881 159.412 31.9772C159.679 31.4658 159.691 31.3322 159.656 29.3169C159.622 27.3577 159.598 27.1612 159.342 26.7532C158.844 25.9592 158.479 25.8664 155.676 25.8219L153.199 25.7828V23.306V20.8293H152.398H151.598L151.634 26.1947ZM160.781 26.9525V33.0756H161.576H162.371V26.9525V20.8293H161.576H160.781V26.9525ZM165.833 21.062C165.468 21.2285 165.239 21.4476 165.038 21.8206C164.757 22.3419 164.756 22.3719 164.756 26.9525C164.756 33.4318 164.475 33.0687 169.494 33.073L172.643 33.0756V32.3481V31.6206H169.769C166.148 31.6206 166.406 31.7827 166.406 29.5074V27.8791L169.005 27.8402C171.357 27.8049 171.644 27.7778 172.028 27.5545C172.83 27.0868 172.944 26.7196 172.986 24.4669C173.021 22.577 173.007 22.4364 172.742 21.9277C172.211 20.9136 172.144 20.8942 169.058 20.8589C166.596 20.8308 166.298 20.8496 165.833 21.062ZM74.8281 22.5163C75.1046 22.7384 75.1168 22.8147 75.1168 24.3166C75.1168 25.4677 75.0722 25.9382 74.9491 26.0853C74.8034 26.2589 74.4652 26.2856 72.4025 26.2856H70.0237L70.0633 24.5164C70.1157 22.1784 69.9948 22.2843 72.6099 22.2843C74.3281 22.2843 74.5711 22.3098 74.8281 22.5163ZM85.4504 22.5268C85.6855 22.76 85.6949 22.931 85.6949 26.9525C85.6949 30.974 85.6855 31.145 85.4504 31.3781C85.2225 31.604 85.0428 31.6206 82.8211 31.6206H80.4365V27.195C80.4365 22.931 80.4454 22.7605 80.6811 22.5268C80.907 22.3028 81.0886 22.2843 83.0657 22.2843C85.0428 22.2843 85.2244 22.3028 85.4504 22.5268ZM136.812 22.5268C137.026 22.739 137.057 22.931 137.057 24.0632C137.057 25.8943 137.204 25.8006 134.338 25.8006H132.023L132.064 24.2143C132.099 22.8107 132.131 22.6082 132.341 22.4562C132.523 22.3246 133.045 22.2843 134.573 22.2843C136.405 22.2843 136.588 22.3042 136.812 22.5268ZM171.122 22.4562C171.331 22.6076 171.364 22.8106 171.4 24.1597C171.433 25.4103 171.405 25.7459 171.244 25.9884L171.048 26.2856H168.727H166.406V24.5275C166.406 22.1608 166.27 22.2843 168.89 22.2843C170.418 22.2843 170.94 22.3246 171.122 22.4562ZM95.9452 29.3269C95.9098 31.092 95.8837 31.2933 95.6688 31.4488C95.4871 31.5804 94.9668 31.6206 93.4506 31.6206C90.9528 31.6206 90.9753 31.6334 90.8711 30.1559C90.7831 28.9081 90.9032 27.8078 91.1544 27.5586C91.3045 27.4098 91.7593 27.3769 93.6609 27.3769H95.9842L95.9452 29.3269ZM136.833 27.5775C137.029 27.7536 137.057 27.9846 137.057 29.4569C137.057 31.7316 137.184 31.6206 134.573 31.6206C133.045 31.6206 132.523 31.5804 132.341 31.4488C132.127 31.2933 132.1 31.092 132.065 29.3269L132.026 27.3769H134.318C136.279 27.3769 136.642 27.4058 136.833 27.5775ZM157.914 27.6732C158.075 27.9169 158.103 28.2633 158.07 29.6233C158.034 31.0938 158.003 31.2959 157.792 31.4488C157.612 31.5792 157.107 31.6206 155.696 31.6206C153.149 31.6206 153.273 31.7387 153.219 29.2672L153.177 27.3769H155.448H157.718L157.914 27.6732Z" fill="#2B2A29"/>
</svg>
