<svg width="15" height="17" viewBox="0 0 15 17" fill="none" xmlns="http://www.w3.org/2000/svg">
<path fill-rule="evenodd" clip-rule="evenodd" d="M2.59655 0.489539C2.2329 0.57422 2.16284 0.632952 1.21242 1.65047C0.383024 2.53844 0.31888 2.61522 0.221576 2.8361C0.0612452 3.20011 0.0212288 3.39788 0.00386878 3.91254C-0.0136678 4.43225 0.0259955 4.77563 0.172673 5.3734C1.0563 8.97468 5.01701 13.7111 8.80786 15.6999C9.93203 16.2896 10.7808 16.5461 11.6178 16.5491C12.1302 16.551 12.3893 16.4955 12.7444 16.308C12.973 16.1873 13.0331 16.1301 13.8585 15.2476C14.7827 14.2593 14.838 14.1846 14.9541 13.7658C15.0153 13.5453 15.0153 13.1318 14.9541 12.9112C14.8488 12.5313 14.8059 12.4761 13.637 11.2177C13.02 10.5536 12.4358 9.94962 12.3387 9.87565C11.7549 9.43083 11.0053 9.49252 10.517 10.0255C10.3693 10.1868 10.3124 10.2813 10.2103 10.535C10.1414 10.7063 10.0492 10.8983 10.0055 10.9618C9.72432 11.3695 9.18139 11.6291 8.71959 11.5767C8.0311 11.4985 7.00388 10.8327 6.13373 9.90065C5.08033 8.77231 4.45902 7.47408 4.61055 6.7179C4.68111 6.36579 4.91206 5.99734 5.1852 5.80106C5.25187 5.75316 5.39249 5.67471 5.49768 5.62678C5.80328 5.48743 5.87845 5.44174 6.0203 5.30913C6.50992 4.85137 6.61708 3.99461 6.2607 3.3872C6.1558 3.20845 4.12691 1.01129 3.87937 0.808391C3.68202 0.646619 3.42301 0.522039 3.18985 0.476691C2.96897 0.433736 2.82255 0.436917 2.59655 0.489539Z" fill="url(#paint0_linear_167_117)"/>
<defs>
<linearGradient id="paint0_linear_167_117" x1="7.5" y1="0.447021" x2="7.5" y2="16.5492" gradientUnits="userSpaceOnUse">
<stop stop-color="#2095F2"/>
<stop offset="1" stop-color="#7170FF"/>
</linearGradient>
</defs>
</svg>
