<svg width="22" height="22" viewBox="0 0 22 22" fill="none" xmlns="http://www.w3.org/2000/svg">
<path fill-rule="evenodd" clip-rule="evenodd" d="M8.41355 0.662897C7.02705 1.03777 5.91072 1.36174 5.82704 1.41354C5.55622 1.58101 5.43252 1.98754 5.5609 2.28786C5.68529 2.57888 5.83198 2.66127 6.60696 2.87554L7.32838 3.07502V3.94952V4.82405L6.94156 4.94025C5.92477 5.24568 5.11911 5.87307 4.59019 6.77123C3.81208 8.09252 3.8744 9.82688 4.74475 11.0731L4.93687 11.3482L4.78872 11.763C4.09519 13.7052 4.35638 15.8591 5.49269 17.569C5.76837 17.9839 6.02109 18.2637 6.36743 18.5377L6.58396 18.709H3.41773H0.251503L0.125872 18.8348C-0.0344445 18.9952 -0.042138 19.1868 0.105757 19.3347L0.211231 19.4404H4.02156C7.40213 19.4404 7.82906 19.4477 7.80696 19.5053C7.74013 19.6796 7.68731 20.1569 7.71254 20.3587C7.77232 20.8378 8.0982 21.2938 8.53295 21.5071C8.83088 21.6532 9.3448 21.6763 9.65684 21.5576L9.87922 21.473L10.0216 21.62C10.0999 21.7009 10.2706 21.8195 10.401 21.8835C10.6021 21.9824 10.693 22 11.0032 22C11.3133 22 11.4043 21.9824 11.6054 21.8835C11.7357 21.8195 11.9065 21.7009 11.9848 21.62L12.1272 21.473L12.3496 21.5576C12.6616 21.6763 13.1755 21.6532 13.4734 21.5071C13.9082 21.2938 14.2341 20.8378 14.2939 20.3587C14.3191 20.1569 14.2663 19.6796 14.1994 19.5053C14.1773 19.4477 14.6035 19.4404 17.9781 19.4404C22.239 19.4404 21.938 19.4636 21.9913 19.1305C22.0133 18.9927 21.999 18.9534 21.8858 18.8401L21.7549 18.709H18.5887H15.4224L15.6305 18.5431C16.1487 18.1297 16.6071 17.5247 16.955 16.7947C17.7104 15.2097 17.8045 13.4065 17.2177 11.763L17.0695 11.3482L17.2616 11.0731C18.132 9.82688 18.1943 8.09252 17.4162 6.77123C16.8869 5.87243 16.0408 5.2172 15.0336 4.92618L14.678 4.82341V3.94749V3.07158L15.0272 2.97995L15.3763 2.88836L15.3967 3.45316C15.4105 3.8353 15.4394 4.07018 15.4859 4.17932C15.6464 4.55557 15.953 4.81076 16.1769 4.75453C16.5003 4.67327 16.5573 4.36074 16.3005 4.07638L16.1393 3.89785L16.1244 3.2973L16.1094 2.69671L16.2615 2.53999C16.5223 2.27121 16.57 2.00785 16.4157 1.68865C16.3649 1.58364 16.262 1.46464 16.176 1.41147C16.0034 1.3047 11.1829 -0.00518984 10.9817 1.54721e-05C10.9108 0.00186529 9.75509 0.30016 8.41355 0.662897ZM13.3349 1.35865C14.6291 1.7071 15.688 2.00294 15.688 2.01606C15.688 2.02919 14.6352 2.32335 13.3482 2.66974L11.0085 3.29958L8.66472 2.66707C7.3757 2.31922 6.3125 2.02596 6.3021 2.01538C6.29174 2.00475 7.3307 1.71299 8.61095 1.36695C9.89125 1.0209 10.9484 0.734911 10.9602 0.731427C10.972 0.727942 12.0406 1.01019 13.3349 1.35865ZM10.0505 3.80196C10.7543 3.99064 11.0037 4.04093 11.1238 4.01839C11.2667 3.99155 13.7474 3.33137 13.8721 3.28698C13.9138 3.27218 13.9259 3.43664 13.9259 4.01934V4.77084H11.0032H8.08053V4.02205V3.27326L8.60704 3.41475C8.89664 3.49252 9.54616 3.66679 10.0505 3.80196ZM14.764 5.6002C15.1556 5.71339 15.7669 6.0316 16.0374 6.26309C17.1648 7.22762 17.5333 8.73888 16.9711 10.0919C16.3205 11.658 14.5038 12.4814 12.9021 11.9362C12.553 11.8173 12.0777 11.5698 12.0777 11.5069C12.0777 11.4599 12.2527 10.8219 12.2711 10.8018C12.2778 10.7945 12.3927 10.8587 12.5266 10.9444C13.0804 11.299 13.8086 11.4378 14.4511 11.3113C15.9335 11.0194 16.8523 9.41411 16.3555 7.98419C16.2088 7.562 16.0093 7.2542 15.6808 6.94322C14.8082 6.11703 13.4875 6.01198 12.4962 6.68988C11.7841 7.1769 11.39 7.92457 11.39 8.78857V9.15879H11.0032H10.6164V8.78065C10.6164 8.07152 10.3752 7.49425 9.86598 6.98456C9.36062 6.47878 8.7726 6.23478 8.05904 6.23478C7.34549 6.23478 6.75747 6.47878 6.25211 6.98456C5.74279 7.49438 5.50172 8.07793 5.50172 8.80104C5.50172 9.53577 5.72552 10.0715 6.25353 10.6008C6.8231 11.1718 7.36061 11.378 8.18717 11.3425C8.72584 11.3193 9.07166 11.2117 9.48049 10.9402C9.61076 10.8536 9.72414 10.79 9.7324 10.7989C9.74065 10.8078 9.78956 10.9663 9.84105 11.1511C9.9482 11.5358 9.94635 11.5408 9.62916 11.7136C8.76831 12.1825 7.70368 12.2291 6.76964 11.8387C6.18902 11.596 5.57659 11.0646 5.25007 10.5202C4.17599 8.72924 5.00585 6.401 6.97126 5.6914C7.46523 5.51305 7.57504 5.5084 11.1106 5.51722C14.1878 5.52488 14.5302 5.53266 14.764 5.6002ZM8.63072 6.97256C9.11657 7.15298 9.50073 7.50896 9.72818 7.98953C9.85648 8.26059 9.86422 8.30512 9.86422 8.77415C9.86422 9.25261 9.85979 9.27662 9.74718 9.41062C9.6828 9.4872 9.60711 9.63122 9.579 9.73073C9.46661 10.1287 8.84098 10.5718 8.26604 10.6607C7.23318 10.8204 6.25563 10.0893 6.09265 9.03537C5.8756 7.63191 7.29644 6.47715 8.63072 6.97256ZM14.251 7.01183C14.8088 7.11469 15.3338 7.50733 15.5746 8.00183C16.0209 8.91805 15.6314 10.0291 14.713 10.4595C14.3143 10.6463 13.7845 10.6769 13.3707 10.5369C12.8948 10.3759 12.5195 10.0551 12.4275 9.73073C12.3993 9.63122 12.3236 9.4872 12.2592 9.41062C12.148 9.27834 12.1422 9.24887 12.1422 8.81717C12.1422 8.39073 12.1511 8.34388 12.2878 8.05191C12.5354 7.5232 12.9974 7.1504 13.5557 7.02883C13.8899 6.95608 13.9418 6.95483 14.251 7.01183ZM7.72122 7.76394C7.26266 7.91016 6.91444 8.45904 6.97938 8.93328C7.05614 9.49365 7.50817 9.89063 8.06841 9.88968C8.98622 9.88813 9.48388 8.85038 8.92106 8.11179C8.67439 7.78811 8.13546 7.63187 7.72122 7.76394ZM13.6822 7.73739C13.3454 7.81771 13.0216 8.1077 12.8967 8.44101C12.817 8.65383 12.8428 9.03102 12.9534 9.26875C13.3264 10.0705 14.4635 10.1129 14.8835 9.34063C15.0421 9.04883 15.0707 8.80169 14.9813 8.49393C14.8215 7.94384 14.2391 7.60464 13.6822 7.73739ZM8.29213 8.53884C8.46302 8.68278 8.47419 8.89771 8.31886 9.05318C8.03953 9.3328 7.57363 9.01257 7.74357 8.65774C7.80267 8.53437 7.9604 8.42923 8.08797 8.42811C8.12755 8.42776 8.2194 8.47758 8.29213 8.53884ZM14.1892 8.54C14.3483 8.68403 14.326 8.96413 14.1445 9.10364C14.027 9.19394 13.8034 9.16924 13.6875 9.05318C13.362 8.72744 13.8477 8.23065 14.1892 8.54ZM11.708 9.92599C11.7291 9.96023 11.0647 12.424 11.0231 12.4656C11.0122 12.4766 10.9944 12.4769 10.9837 12.4661C10.973 12.4554 10.8172 11.9053 10.6374 11.2437C10.4576 10.582 10.3007 10.0068 10.2886 9.9654C10.2684 9.89584 10.3208 9.89011 10.9763 9.89011C11.3665 9.89011 11.6958 9.90625 11.708 9.92599ZM5.74877 12.1013C5.95318 12.2477 6.36248 12.4682 6.58959 12.5544L6.71037 12.6002L6.67555 12.9121C6.65638 13.0837 6.64194 13.6597 6.6434 14.192C6.6459 15.0681 6.65694 15.2111 6.75988 15.6986C6.95209 16.6091 7.34394 17.6072 7.80413 18.3586L7.91889 18.546L7.81702 18.5149C7.6301 18.4578 7.11606 18.1862 6.91422 18.0379C6.5889 17.7989 6.20771 17.3588 5.95834 16.9343C5.3396 15.881 5.07656 14.7364 5.16544 13.4838C5.2061 12.9107 5.43063 11.955 5.52463 11.955C5.53554 11.955 5.63642 12.0209 5.74877 12.1013ZM16.5415 12.0303C16.5634 12.0717 16.6322 12.3096 16.6944 12.5589C17.2548 14.8056 16.3298 17.4323 14.678 18.285C14.4653 18.3948 14.2463 18.4982 14.1914 18.5147C14.0941 18.544 14.0949 18.5391 14.2272 18.315C14.6961 17.5204 15.0767 16.5266 15.2625 15.6117C15.3494 15.1837 15.3632 14.9893 15.3644 14.1705C15.3651 13.65 15.3505 13.0883 15.3319 12.9223L15.298 12.6205L15.6757 12.4374C15.8834 12.3368 16.1404 12.1884 16.2468 12.1076C16.4737 11.9353 16.4891 11.9313 16.5415 12.0303ZM10.2068 12.458C10.2525 12.702 10.3838 12.9267 10.5589 13.0603C10.6957 13.1647 10.7559 13.1811 11.0032 13.1811C11.2505 13.1811 11.3107 13.1647 11.4475 13.0603C11.6176 12.9304 11.7471 12.7128 11.7982 12.4713C11.8156 12.3884 11.8374 12.3079 11.8465 12.2923C11.8557 12.2766 11.9646 12.3202 12.0886 12.389C12.6385 12.6943 13.5426 12.8821 14.2124 12.8303L14.5635 12.8032L14.5992 13.0136C14.6189 13.1294 14.634 13.65 14.6327 14.1705C14.6302 15.2092 14.5789 15.565 14.3121 16.3931C14.1356 16.9411 13.6849 17.8302 13.3399 18.3111L13.0545 18.709H11.0032H8.95187L8.66644 18.3111C8.32849 17.84 7.87509 16.9496 7.69706 16.4075C7.43308 15.6036 7.37617 15.21 7.37364 14.1705C7.37239 13.65 7.38748 13.1294 7.40716 13.0136L7.44292 12.8032L7.79398 12.8303C8.46147 12.882 9.37549 12.6925 9.9072 12.3924C10.0254 12.3257 10.1344 12.2772 10.1495 12.2846C10.1645 12.2921 10.1903 12.3701 10.2068 12.458ZM13.4785 19.6662C13.5887 19.9965 13.5834 20.3712 13.4658 20.5605C13.2226 20.9523 12.6173 21.0232 12.3203 20.6948C12.1345 20.4893 11.8296 20.5448 11.6952 20.8085C11.3739 21.4388 10.6324 21.4388 10.3112 20.8085C10.1768 20.5448 9.87187 20.4893 9.68611 20.6948C9.3913 21.0208 8.78528 20.9549 8.547 20.5709C8.42274 20.3707 8.41501 20.0046 8.52787 19.6662L8.60322 19.4404H11.0032H13.4032L13.4785 19.6662Z" fill="white"/>
</svg>
