<svg width="60" height="60" viewBox="0 0 60 60" fill="none" xmlns="http://www.w3.org/2000/svg">
<path fill-rule="evenodd" clip-rule="evenodd" d="M26.4315 0.186201C19.0358 1.0825 12.0578 4.81522 7.21183 10.4676C1.13171 17.5592 -1.32275 27.3322 0.6902 36.4345C1.71019 41.0469 4.05098 45.781 7.10053 49.3992C12.7184 56.0644 21.2176 60 29.9941 60C36.767 60 43.5117 57.6186 48.8345 53.3479C54.8418 48.528 58.8954 41.1545 59.8026 33.3977C60.9483 23.6009 57.0532 13.6838 49.5162 7.20827C45.9069 4.10726 41.1213 1.72078 36.4313 0.683013C33.381 0.00803308 29.495 -0.185013 26.4315 0.186201ZM32.9428 1.85468C42.5599 2.87856 50.9626 8.72524 55.3151 17.4217C57.4544 21.696 58.3704 25.9747 58.2183 30.9813C58.0894 35.2251 57.2506 38.5796 55.3491 42.456C53.9182 45.3731 52.5209 47.3691 50.3271 49.6297C45.9597 54.13 40.8463 56.8074 34.3943 57.972C32.6157 58.293 27.3726 58.293 25.5939 57.972C22.5891 57.4296 20.2462 56.6779 17.6611 55.4268C14.7579 54.0218 12.6157 52.5212 10.3031 50.2727C5.9147 46.0056 3.23564 40.9287 2.08922 34.7069C1.77266 32.9893 1.64635 29.0609 1.84566 27.136C2.99778 16.0118 10.5936 6.57904 21.1936 3.10929C23.1667 2.46333 24.888 2.09831 27.3292 1.80794C28.1875 1.7059 31.8296 1.73627 32.9428 1.85468ZM28.5067 5.15295C23.7426 5.48672 19.4026 7.05329 15.3354 9.9072C13.8435 10.954 10.9582 13.8402 9.91171 15.3324C7.44746 18.8462 5.99749 22.4078 5.38072 26.4618C5.10183 28.2946 5.1027 31.7048 5.38233 33.529C6.57448 41.3051 10.9137 47.6452 17.7807 51.6442C20.176 53.0392 23.3682 54.131 26.4657 54.6148C28.2667 54.8961 31.6692 54.895 33.5267 54.6124C41.6167 53.3822 48.5462 48.4037 52.1378 41.2412C54.0114 37.5049 54.8057 34.1642 54.8118 29.9954C54.8196 24.6179 53.3099 19.9431 50.0765 15.3324C49.03 13.8402 46.1447 10.954 44.6528 9.9072C40.2993 6.85243 35.8522 5.33472 30.7378 5.15853C29.8856 5.12915 28.8817 5.12667 28.5067 5.15295ZM32.0393 6.93885C41.2395 7.80663 49.0442 13.9737 51.934 22.659C53.5341 27.4679 53.5362 32.5162 51.9402 37.3133C49.6117 44.3122 44.0663 49.7965 37.0461 52.0433C30.3106 54.1992 22.9927 53.155 17.1033 49.1977C14.4712 47.4291 12.5709 45.5238 10.7707 42.848C6.7671 36.8978 5.77562 29.5071 8.05978 22.6423C11.4296 12.5149 21.4671 5.94163 32.0393 6.93885ZM29.3959 10.5685C29.1485 10.8321 29.1265 10.9841 29.1265 12.4283C29.1265 13.8359 29.1525 14.0272 29.3744 14.2492C29.5121 14.3869 29.7875 14.4972 29.9941 14.4972C30.2007 14.4972 30.4761 14.3869 30.6139 14.2492C30.835 14.028 30.8618 13.8359 30.8618 12.4681C30.8618 11.1049 30.8332 10.8988 30.6048 10.6083C30.2789 10.1939 29.7638 10.1769 29.3959 10.5685ZM16.2754 15.8857C15.9165 16.0576 15.6792 16.6327 15.8425 16.9346C16.1055 17.4207 18.1895 19.3326 18.4565 19.3326C18.8051 19.3326 19.3344 18.8016 19.3344 18.4518C19.3344 18.1383 17.1937 15.9199 16.7934 15.8188C16.6571 15.7844 16.424 15.8145 16.2754 15.8857ZM41.7922 17.0221C40.5576 18.2815 40.456 18.5261 40.9581 19.0282C41.4601 19.5305 41.7047 19.4288 42.9636 18.1939C43.9438 17.2324 44.1244 16.9942 44.1244 16.6633C44.1244 16.181 43.7959 15.861 43.3008 15.861C42.9972 15.861 42.7258 16.0699 41.7922 17.0221ZM29.4307 19.1411L29.1265 19.4453V24.5613V29.6774L26.7619 32.0539C24.6955 34.1308 24.4023 34.4739 24.4378 34.7734C24.49 35.2143 25.0355 35.6332 25.4282 35.5339C25.5874 35.4936 26.8753 34.2976 28.2898 32.8762L30.8618 30.2918V24.8686V19.4453L30.5575 19.1411C30.3901 18.9737 30.1366 18.8367 29.9941 18.8367C29.8516 18.8367 29.5981 18.9737 29.4307 19.1411ZM10.5555 29.4144C10.1859 29.8079 10.2089 30.2888 10.6127 30.6063C10.9031 30.8348 11.1091 30.8633 12.4719 30.8633C13.8393 30.8633 14.0313 30.8365 14.2524 30.6153C14.3902 30.4776 14.5003 30.2021 14.5003 29.9954C14.5003 29.7887 14.3902 29.5132 14.2524 29.3755C14.0303 29.1533 13.8393 29.1275 12.4148 29.1275C10.9134 29.1275 10.8101 29.1435 10.5555 29.4144ZM45.7358 29.3755C45.5981 29.5132 45.4879 29.7887 45.4879 29.9954C45.4879 30.2021 45.5981 30.4776 45.7358 30.6153C45.9569 30.8365 46.1489 30.8633 47.5163 30.8633C48.8791 30.8633 49.0851 30.8348 49.3756 30.6063C49.7899 30.2803 49.8069 29.765 49.4153 29.397C49.1518 29.1496 48.9999 29.1275 47.5561 29.1275C46.1489 29.1275 45.9576 29.1535 45.7358 29.3755ZM17.0246 41.7969C16.0444 42.7584 15.8638 42.9966 15.8638 43.3275C15.8638 43.8002 16.2193 44.1608 16.6855 44.1608C16.9433 44.1608 17.2836 43.8927 18.177 42.986C19.4324 41.7117 19.5353 41.4678 19.0301 40.9626C18.5281 40.4603 18.2836 40.562 17.0246 41.7969ZM40.9581 40.9626C40.4529 41.4678 40.5558 41.7117 41.8113 42.986C42.7046 43.8927 43.0449 44.1608 43.3027 44.1608C43.7689 44.1608 44.1244 43.8002 44.1244 43.3275C44.1244 42.9966 43.9438 42.7584 42.9636 41.7969C41.7047 40.562 41.4601 40.4603 40.9581 40.9626ZM29.3744 45.7416C29.1522 45.9638 29.1265 46.1549 29.1265 47.5798C29.1265 49.0817 29.1424 49.185 29.4133 49.4396C29.8067 49.8093 30.2874 49.7863 30.6048 49.3825C30.8332 49.092 30.8618 48.8859 30.8618 47.5227C30.8618 46.1549 30.835 45.9628 30.6139 45.7416C30.4761 45.6039 30.2007 45.4936 29.9941 45.4936C29.7875 45.4936 29.5121 45.6039 29.3744 45.7416Z" fill="white"/>
</svg>
