<svg width="40" height="40" viewBox="0 0 40 40" fill="none" xmlns="http://www.w3.org/2000/svg">
<path d="M20 0C31.0457 0 40 8.9543 40 20C40 31.0457 31.0457 40 20 40C8.9543 40 0 31.0457 0 20C0 8.9543 8.9543 0 20 0Z" fill="url(#paint0_linear_218_681)"/>
<rect x="10" y="13.5" width="20" height="13" rx="1.5" stroke="white"/>
<path d="M18.5353 22.24C18.202 22.4325 17.7853 22.1919 17.7853 21.807L17.7853 18.4512C17.7853 18.0663 18.202 17.8257 18.5353 18.0182L21.4416 19.6961C21.7749 19.8885 21.7749 20.3697 21.4416 20.5621L18.5353 22.24Z" stroke="white"/>
<defs>
<linearGradient id="paint0_linear_218_681" x1="0" y1="20" x2="40" y2="20" gradientUnits="userSpaceOnUse">
<stop stop-color="#2494F3"/>
<stop offset="1" stop-color="#7170FF"/>
</linearGradient>
</defs>
</svg>
