<svg viewBox="0 0 18 12" fill="none" xmlns="http://www.w3.org/2000/svg">
<path fill-rule="evenodd" clip-rule="evenodd" d="M17.5763 0.833333C17.7098 0.363333 17.5763 0.0216665 16.9856 0.0216665H15.0218C14.5264 0.0216665 14.2976 0.320833 14.1641 0.640833C14.1641 0.640833 13.1539 3.37417 11.7431 5.14625C11.2856 5.65875 11.076 5.82958 10.8281 5.82958C10.6946 5.82958 10.5229 5.65875 10.5229 5.18917V0.81125C10.5229 0.25625 10.3706 0 9.95101 0H6.86251C6.55726 0 6.36676 0.25625 6.36676 0.5125C6.36676 1.04625 7.07213 1.17458 7.14826 2.66917V5.91667C7.14826 6.62125 7.03576 6.75 6.78601 6.75C6.11888 6.75 4.49851 3.99542 3.5265 0.856667C3.3375 0.235 3.1455 0 2.64975 0H0.667126C0.0952502 0 0 0.29875 0 0.619167C0 1.19583 0.667126 4.09958 3.10725 7.94292C4.72763 10.5679 7.03426 11.9787 9.11214 11.9787C10.3706 11.9787 10.5229 11.6583 10.5229 11.1246V9.13875C10.5229 8.49833 10.6373 8.39167 11.0378 8.39167C11.3235 8.39167 11.8384 8.56208 13.0013 9.82208C14.3355 11.3167 14.5643 12 15.3079 12H17.2714C17.8433 12 18.1103 11.6796 17.9576 11.0604C17.7863 10.4413 17.1379 9.54458 16.299 8.47708C15.8415 7.87958 15.1553 7.2175 14.9456 6.89708C14.6599 6.47 14.736 6.29917 14.9456 5.915C14.9265 5.915 17.3288 2.11417 17.5763 0.831667" fill="url(#paint0_linear_125_660)"/>
<defs>
<linearGradient id="paint0_linear_125_660" x1="9" y1="0" x2="9" y2="12" gradientUnits="userSpaceOnUse">
<stop stop-color="#2095F2"/>
<stop offset="1" stop-color="#7170FF"/>
</linearGradient>
</defs>
</svg>
