<svg width="19" height="11" viewBox="0 0 19 11" fill="none" xmlns="http://www.w3.org/2000/svg">
<path fill-rule="evenodd" clip-rule="evenodd" d="M18.5527 0.763889C18.6936 0.333056 18.5527 0.019861 17.9293 0.019861H15.8563C15.3334 0.019861 15.092 0.294097 14.951 0.58743C14.951 0.58743 13.8847 3.09299 12.3955 4.7174C11.9126 5.18719 11.6913 5.34378 11.4297 5.34378C11.2888 5.34378 11.1075 5.18719 11.1075 4.75674V0.743646C11.1075 0.234896 10.9468 0 10.5038 0H7.24376C6.92155 0 6.72047 0.234896 6.72047 0.469792C6.72047 0.959063 7.46503 1.0767 7.54538 2.44674V5.42361C7.54538 6.06948 7.42663 6.1875 7.16301 6.1875C6.45882 6.1875 4.74842 3.66247 3.72242 0.785278C3.52292 0.215417 3.32025 0 2.79696 0H0.704188C0.100542 0 0 0.273854 0 0.567569C0 1.09618 0.704188 3.75795 3.27988 7.28101C4.99028 9.68726 7.42505 10.9805 9.61837 10.9805C10.9468 10.9805 11.1075 10.6868 11.1075 10.1975V8.37719C11.1075 7.79014 11.2282 7.69236 11.651 7.69236C11.9526 7.69236 12.4961 7.84858 13.7236 9.00358C15.1319 10.3736 15.3734 11 16.1583 11H18.2309C18.8346 11 19.1164 10.7063 18.9553 10.1387C18.7744 9.57115 18.09 8.7492 17.2045 7.77066C16.7216 7.22295 15.9972 6.61604 15.776 6.32233C15.4743 5.93083 15.5547 5.77424 15.776 5.42208C15.7558 5.42208 18.2915 1.93799 18.5527 0.762361" fill="white"/>
</svg>
