<svg viewBox="0 0 19 14" fill="none" xmlns="http://www.w3.org/2000/svg">
<path d="M18.8779 3.09122C18.8779 1.45064 17.6494 0.130882 16.1315 0.130882C14.0754 0.0364572 11.9784 0 9.83545 0H9.1674C7.02963 0 4.92897 0.0364573 2.87285 0.131246C1.3586 0.131246 0.130125 1.45829 0.130125 3.09887C0.0373398 4.39639 -0.00200115 5.69427 0.000225694 6.99215C-0.00348571 8.29003 0.0385769 9.58913 0.126413 10.8894C0.126413 12.53 1.35489 13.8607 2.86914 13.8607C5.02918 13.9592 7.24489 14.0029 9.49771 13.9993C11.7542 14.0065 13.9638 13.9604 16.1263 13.8607C17.6442 13.8607 18.8727 12.53 18.8727 10.8894C18.9618 9.58792 19.0026 8.29003 18.9989 6.98851C19.0073 5.69063 18.967 4.39153 18.8779 3.09122ZM7.68284 10.5686V3.40475L13.0644 6.98486L7.68284 10.5686Z" fill="url(#paint0_linear_125_661)"/>
<defs>
<linearGradient id="paint0_linear_125_661" x1="9.5" y1="0" x2="9.5" y2="14" gradientUnits="userSpaceOnUse">
<stop stop-color="#2095F2"/>
<stop offset="1" stop-color="#7170FF"/>
</linearGradient>
</defs>
</svg>
