<svg width="19" height="13" viewBox="0 0 19 13" fill="none" xmlns="http://www.w3.org/2000/svg">
<path d="M18.8779 2.87042C18.8779 1.34702 17.6494 0.121533 16.1315 0.121533C14.0754 0.0338531 11.9784 0 9.83545 0H9.1674C7.02963 0 4.92897 0.0338532 2.87285 0.121872C1.3586 0.121872 0.130125 1.35413 0.130125 2.87753C0.0373398 4.08236 -0.00200115 5.28754 0.000225694 6.49271C-0.00348571 7.69789 0.0385769 8.90419 0.126413 10.1116C0.126413 11.635 1.35489 12.8707 2.86914 12.8707C5.02918 12.9621 7.24489 13.0027 9.49771 12.9993C11.7542 13.0061 13.9638 12.9632 16.1263 12.8707C17.6442 12.8707 18.8727 11.635 18.8727 10.1116C18.9618 8.90307 19.0026 7.69789 18.9989 6.48933C19.0073 5.28415 18.967 4.07785 18.8779 2.87042ZM7.68284 9.81372V3.16155L13.0644 6.48594L7.68284 9.81372Z" fill="white"/>
</svg>
